<svg width="304" height="193" viewBox="0 0 304 193" fill="none" xmlns="http://www.w3.org/2000/svg">
<g clip-path="url(#clip0_184_1922)">
<path d="M173.04 106.75C165.33 114.83 149.04 122.04 138.75 126.96C117.93 136.93 96.1499 145.11 74.8799 154.05C72.7399 152.57 73.3099 149.85 73.3999 147.61C73.7699 138.5 76.3499 128.23 77.3899 119.1C60.1999 120.61 45.7599 108.82 41.4599 92.53C27.8399 92.04 14.0899 93.22 5.55987 80.43C-1.34013 70.07 -1.45013 41.7 3.20987 30.41C9.48987 15.16 25.7499 13.11 40.3499 14.05C40.6099 6.81003 43.4199 2.21003 50.9799 1.18003C89.3299 3.55003 132.1 -2.27997 169.93 1.05003C176.89 1.66003 181.38 4.22003 182.41 11.57C180.81 35.52 184.46 61.99 182.42 85.63C181.76 93.28 178.29 101.24 173.03 106.74L173.04 106.75ZM40.3899 29.1H23.8899C21.2999 29.1 16.1999 35.12 15.5999 37.81C14.7099 41.77 14.8499 65.23 15.8599 69.13C18.4599 79.19 32.2099 78.41 40.3899 78.1V29.1Z" fill="#2B1E17"/>
<path d="M255.89 40.1001C260.21 41.0401 264.45 48.6401 263.4 53.1001C279.15 51.9001 294.71 53.3501 301.17 69.8301C305.05 79.7401 304.7 106.46 299.94 116.14C292.26 131.73 277.62 130.53 262.5 130.2C259.34 147.41 243.63 158.75 226.41 158.11L230.4 192.11C229.27 193.21 214.16 186.67 211.44 185.58C194.91 178.93 178.06 171.78 162.05 163.97C150.62 158.4 138.2 153.04 129.43 143.61C146.54 133.52 178.24 125.72 188.82 108.02C190.07 105.93 193.41 98.5301 193.41 96.6101V40.1101H255.91L255.89 40.1001ZM263.39 116.1H278.89C283.24 116.1 288.04 109 288.44 104.65C288.94 99.2301 289.24 80.4801 288.18 75.8101C287.56 73.0701 281.14 67.1001 278.89 67.1001H263.39V116.1Z" fill="#2B1E17"/>
</g>
<defs>
<clipPath id="clip0_184_1922">
<rect width="303.82" height="192.22" fill="white"/>
</clipPath>
</defs>
</svg>
