<svg width="60" height="50" viewBox="0 0 60 50" fill="none" xmlns="http://www.w3.org/2000/svg">
<g clip-path="url(#clip0_4_4)">
<path d="M35.9843 20.109C35.9843 20.109 32.6297 19.8839 33.5976 21.5696C34.5656 23.2552 42.3174 23.0183 43.1091 22.8959C43.9007 22.7736 43.3991 22.0354 44.2534 22.1143C48.1372 22.4696 50.9863 19.8721 50.9863 19.8721C50.9863 19.8721 48.4272 20.5511 43.0307 20.3932C37.6303 20.2353 37.1208 15.8021 37.1208 15.8021C53.4317 16.3232 55.1365 13.402 55.1365 13.402C53.6865 14.4205 44.081 14.1836 42.9445 13.0902C41.808 11.9927 45.7858 11.3414 45.7858 11.3414C45.7858 11.3414 46.0131 10.4808 38.9667 11.1322C31.9203 11.7835 32.6022 15.0205 32.6022 15.0205C33.1039 17.3891 35.9843 20.1129 35.9843 20.1129V20.109Z" fill="#E81A02"/>
<path d="M35.8863 24.4079C30.1646 23.5552 28.064 22.3196 27.3429 21.2616C26.7786 20.4287 27.2371 18.7668 27.4879 18.0167C27.4958 18.0009 27.5075 17.9852 27.5154 17.9694C27.5702 17.8628 27.6016 17.7522 27.6251 17.6417V17.6378C27.6525 17.4917 27.6525 17.3378 27.6329 17.1877C28.209 17.2943 28.8125 17.3851 29.4474 17.4522C29.4474 17.4522 28.111 11.0335 25.3285 8.53071C25.3285 8.53071 29.6865 12.2967 31.3991 16.6351C31.3991 16.6351 33.4448 0.319754 16.5852 0.00789547C16.5852 0.00789547 14.8883 8.55835 20.3632 13.7336C18.9288 13.7968 16.3971 14.3534 18.7093 17.7641C20.4847 20.3813 22.8557 20.5866 24.7054 19.9905C24.7172 20.7958 24.9484 22.0196 26.0183 23.196C29.0869 26.5711 32.857 26.658 41.9686 26.2237C45.97 26.0343 49.3011 25.7106 58.7342 22.9907C58.7342 22.9907 44.8217 25.7421 35.8863 24.4118V24.4079Z" fill="#E81A02"/>
<path d="M4.35402 29.3029L4.37753 29.1686L4.40104 29.0107L4.64402 27.4751L4.75375 26.6619L4.71065 26.5711L4.60091 26.5277L4.04441 26.6382L2.95493 26.8633L2.88831 26.8869L1.77531 27.1317L1.1757 27.2225C1.08556 27.2225 1.01894 27.1909 0.975832 27.1317L0.932723 26.9067C0.932723 26.8317 0.956237 26.7725 0.999346 26.729L1.13259 26.6619C1.20705 26.6461 1.258 26.6185 1.28935 26.5711C1.3207 26.5277 1.33246 26.4882 1.33246 26.4606L1.26584 26.3027L1.1757 26.1685L1.08556 26.1251L1.04245 26.0343L0.999346 25.9908C1.01502 25.8724 1.0307 25.8053 1.04245 25.7895L1.15219 25.6987H1.1757L1.26584 25.6356L1.30895 25.5092L1.24232 25.4066L1.13259 25.2961H1.10908L0.999346 25.229L0.956237 25.1145C0.987589 25.0079 1.01502 24.9368 1.04637 24.9013C1.07773 24.8618 1.17178 24.8303 1.33638 24.7987L1.86937 24.7079L2.80209 24.4829L2.86871 24.4592L3.57805 24.2776L4.11104 24.1434L4.46767 24.0763L4.86741 23.9855L5.22404 23.9184L5.60026 23.8276L6.02351 23.7605L6.42325 23.6697L6.58001 23.646L7.04637 23.5552L7.55585 23.4644L8.31221 23.3065L9.24494 23.1012H9.4017L10.7342 22.7973L11.4239 22.6315L11.5336 22.6986L11.5767 22.8091L11.5532 22.8999L11.5101 22.9433L11.5767 23.1012H11.8432L12.0196 23.0104H12.3292L12.486 23.1012L12.5291 23.2433L12.486 23.3262L12.4193 23.3657L12.3958 23.3854L12.3057 23.4447L12.2626 23.5473V23.571L12.3292 23.6381L12.4389 23.7052L12.5291 23.8394C12.5722 23.8828 12.5957 23.942 12.5957 24.0171L12.5291 24.2855L12.4193 24.4434L12.3762 24.4868L12.2665 24.5973L12.243 24.7079L12.2665 24.775L12.3331 24.8184H12.3566L12.4233 24.9171L12.4664 25.0395C12.4664 25.1382 12.4311 25.2092 12.3566 25.2566L12.0666 25.4027H11.7766L11.1339 25.5369L10.2913 25.6711L10.1346 25.7145L9.9582 25.7382C9.63292 25.7816 9.42521 25.8093 9.33507 25.8171C9.24494 25.825 9.08426 25.8566 8.8452 25.9158L8.06923 26.0066L7.86937 26.0974L7.73612 26.2751L7.57936 26.9225L7.35598 27.9528L7.31287 28.1304L7.28935 28.2883L7.04637 29.6305L6.93664 30.3687L6.97975 30.5266L7.13651 30.57L7.51274 30.4595L8.22208 30.2147L8.35532 30.1476L8.51208 30.1042L8.93534 29.9937L9.33507 29.8831L9.75833 29.7489L10.4246 29.5318L11.1339 29.2752L11.5572 29.1686L11.6904 29.2357L11.7805 29.37V29.4134L11.7139 29.5713L11.6042 29.6384H11.5611L11.4709 29.6858L11.4278 29.7766L11.4513 29.8674L11.518 29.891V29.9147L11.5846 30.0055L11.5415 30.12L11.4749 30.2108L11.4317 30.2542L11.3651 30.345L11.3416 30.4121L11.3651 30.5266L11.4553 30.574L11.5219 30.5977L11.612 30.6885C11.6551 30.7319 11.6786 30.8148 11.6786 30.9372C11.6786 31.2964 11.6081 31.553 11.467 31.703C11.3259 31.853 11.0555 31.9714 10.6519 32.0622C10.546 32.078 10.4794 32.0938 10.452 32.1096L10.2717 32.153L9.31156 32.4925L7.30503 33.1004L7.08165 33.1675C6.97583 33.1833 6.89745 33.1991 6.8465 33.2149C6.79556 33.2307 6.74461 33.2465 6.7015 33.2583C6.65839 33.2741 6.61136 33.2899 6.56825 33.3057C6.52515 33.3215 6.49379 33.3373 6.47812 33.3491L6.38798 33.3925L6.36447 33.507L6.34095 33.5978L6.31744 33.6886L6.25082 33.957V34.2492L6.17635 34.8334L6.00392 35.6229V35.69L5.80405 36.5901L5.73743 37.1072L5.81189 37.2217H6.00784L6.49379 37.1546L7.44611 36.9533C7.66558 36.9217 7.83018 36.9019 7.93207 36.8862C8.03396 36.8704 8.17505 36.8348 8.3514 36.7756L8.88439 36.6848L9.2371 36.6414L9.74657 36.5309L9.83671 36.5072L10.3462 36.3967L10.7459 36.3532L11.0124 36.3098L11.3455 36.219L11.3886 36.1953L11.6982 36.1282L11.9647 36.0848C12.098 36.0848 12.192 36.1085 12.2508 36.1558C12.3096 36.2032 12.3527 36.3019 12.3841 36.4598L12.3174 36.6453L12.1842 36.7835L12.1176 36.8072L12.0078 36.9454L11.9647 37.0598L11.9882 37.1743L12.098 37.198L12.1215 37.2217H12.2116L12.2782 37.3559L12.2116 37.5138L12.1019 37.6283L11.9686 37.7428L11.9255 37.9007L11.9686 37.9915L12.0353 38.0349L12.0784 38.102L12.1215 38.1691L12.0784 38.2836L11.9686 38.3744L11.8589 38.5323L11.8158 38.6665L11.7923 38.7573L11.7257 38.8244L11.5924 38.8678L11.4592 38.8915L11.3926 38.9152L9.97387 39.0968C9.66427 39.1402 9.19007 39.2192 8.55519 39.3336C7.92031 39.4481 7.21881 39.5863 6.45068 39.7521L6.25082 39.7955H5.71783L5.54148 39.8192L5.36512 39.8666L5.09863 39.9376L4.78903 39.985L4.4324 40.0561L4.07577 40.1271L3.09601 40.2455L2.56303 40.2929L2.33965 40.3166L2.04964 40.435L1.9595 40.4587C1.84193 40.4587 1.7518 40.4903 1.69301 40.5495H1.46963C1.36381 40.5337 1.29719 40.5179 1.26976 40.5061C1.21097 40.4311 1.17962 40.3798 1.17962 40.3482C1.1953 40.2732 1.21097 40.2297 1.22273 40.214L1.33246 40.1034L1.37557 40.06L1.44219 39.9929L1.46571 39.9021L1.44219 39.835L1.37557 39.7916L1.28543 39.7245L1.15219 39.6573L1.10908 39.4994C1.10908 39.4087 1.13259 39.3415 1.1757 39.2981L1.37557 39.1876L1.44219 39.1639L1.55193 39.0968L1.61855 38.9863L1.55193 38.8757L1.46179 38.8323L1.39517 38.7652L1.23841 38.631L1.17178 38.4968L1.21489 38.406L1.34814 38.2954L1.68125 38.1375L2.08099 37.9599L2.61398 37.802L2.94709 37.7112L2.9902 37.6441L3.05682 37.4428L3.12345 37.1506L3.19007 36.7914L3.25669 36.3216L3.2998 35.9624L3.32332 35.5835L3.41345 35.1137L3.48008 34.6676L3.52319 34.2886L3.49967 34.1307L3.43305 34.0636L3.03331 34.1544L2.32397 34.3123L2.28086 34.336L1.57152 34.5137L1.14827 34.5808L1.01502 34.5571L0.971913 34.3992L0.995427 34.3321L1.03854 34.2886L1.08164 34.2452L1.10516 34.1544C1.10516 34.0636 1.07381 34.0123 1.01502 33.9965L0.858261 33.9531H0.834747L0.677987 33.9294C0.634878 33.8702 0.611364 33.8268 0.611364 33.7952L0.634878 33.7281L0.677987 33.6847L0.74461 33.6176L0.811233 33.5939L0.834747 33.436L0.768124 33.3925L0.701501 33.3689L0.611364 33.3925L0.454604 33.4162L0.411495 33.4399C0.337033 33.4557 0.293924 33.4715 0.278248 33.4833H0.168516C0.094055 33.4675 0.0509459 33.4518 0.0352699 33.4399L-0.0078392 33.3057V33.282L0.0156748 33.2149L0.082298 33.1241L0.105812 33.1004L0.148921 33.0333L0.19203 32.8991L0.148921 32.8083L0.105812 32.7649H0.082298L0.0156748 32.7215L-0.0078392 32.6307C0.0235129 32.5715 0.0509459 32.5359 0.082298 32.5201L0.325276 32.4333L0.681906 32.3464L1.12475 32.2359L1.63422 32.1254L2.30046 31.9477L2.39059 31.924L3.38994 31.703L3.8563 31.5925L3.92293 31.549L3.98955 31.4148L4.03266 31.2372L4.07577 30.9687L4.34226 29.3226L4.35402 29.3029Z" fill="black"/>
<path d="M12.5095 34.6952L12.8426 34.0242C12.8857 33.9334 12.9602 33.8149 13.066 33.6649C13.1679 33.5149 13.2658 33.3886 13.3521 33.282L13.9713 32.5636L14.8334 31.7346L15.433 31.2648L17.4709 29.8989C17.7805 29.6739 18.0078 29.5634 18.1568 29.5634C18.2469 29.595 18.3057 29.6266 18.3331 29.666C18.3645 29.7016 18.3762 29.7687 18.3762 29.8555L18.3527 29.9226L18.2626 30.0805L18.1293 30.2147L17.9295 30.3727L17.8628 30.4398L17.8863 30.5503L17.953 30.574L18.0862 30.5306L18.1959 30.5069H18.2391L18.3488 30.574L18.3919 30.6845C18.3331 30.7595 18.2861 30.8108 18.2587 30.8424L18.0157 30.9766L17.7492 31.1108C17.7061 31.1424 17.6669 31.1937 17.6394 31.2687L17.7061 31.3595L17.8393 31.3832H17.8824L18.0823 31.4069C18.1411 31.4385 18.1724 31.4661 18.1724 31.4977L18.1489 31.6082V31.6753L18.1058 31.7859V31.8964L18.1293 31.9872L18.1724 32.0306H18.2155L18.2587 32.1214L18.3018 32.3464C18.3018 32.453 18.1176 32.6465 17.7492 32.9267L16.5578 33.7991L16.4677 33.8426L16.4246 33.886C15.9974 34.1544 15.6212 34.4268 15.2998 34.7031C14.9745 34.9795 14.806 35.1926 14.7903 35.3426C14.8178 35.4019 14.8491 35.4413 14.8805 35.4532L15.1234 35.4966L15.3899 35.4729L15.8328 35.4058H15.9229L16.0327 35.3821C16.1933 35.3821 16.3187 35.3663 16.4089 35.3387L16.7381 35.315C17.1339 35.315 17.4317 35.4413 17.6199 35.694C17.8276 35.919 17.9569 36.1795 18.0157 36.4756V36.6532L18.0392 36.8111C18.0392 37.6165 17.7217 38.3625 17.0829 39.0494C16.4442 39.7363 15.7622 40.2969 15.0372 40.7271C14.6218 40.9522 14.1476 41.1693 13.6146 41.3745C13.1561 41.5403 12.7916 41.6193 12.5251 41.6193C12.435 41.6193 12.3605 41.5601 12.3018 41.4417L12.2587 41.039C12.3135 40.964 12.3566 40.9127 12.3919 40.8811L12.6114 40.7469L12.8504 40.6561L12.9484 40.5653V40.4982H12.8347L12.678 40.5219C12.5604 40.5219 12.4664 40.4982 12.3997 40.4548C12.3331 40.4113 12.29 40.3442 12.2782 40.2534L12.3135 39.985L12.388 39.8074V39.2468C12.4154 39.2034 12.4468 39.1718 12.4742 39.156C12.5604 39.081 12.6623 39.0218 12.7799 38.9784L13.6773 38.5757C13.838 38.5007 13.983 38.4336 14.1123 38.3744C14.2417 38.3152 14.3906 38.2323 14.5513 38.1296C14.8138 37.9796 14.951 37.8178 14.9667 37.6362C14.9236 37.5928 14.8765 37.5651 14.8334 37.5572C14.7903 37.5493 14.7237 37.5375 14.6336 37.5257L13.8576 37.502H13.1914C13.0738 37.4704 12.9406 37.4546 12.7916 37.4467C12.6427 37.4388 12.5487 37.3835 12.5016 37.277L12.3919 36.5585V35.3032C12.3919 35.0782 12.4272 34.8689 12.5016 34.6755L12.5095 34.6952Z" fill="black"/>
<path d="M26.5787 34.561L26.5121 35.2321C26.4219 35.919 26.2809 36.5506 26.0967 37.123C25.9086 37.6994 25.6813 38.1652 25.4108 38.5204L25.1404 38.8797L24.5996 39.5271L24.3057 39.8389L23.9882 40.1311L23.5807 40.3995L23.2123 40.51H23.1025C23.0007 40.51 22.9144 40.4745 22.8439 40.3995C22.7577 40.3561 22.6832 40.2811 22.6283 40.1745L22.5186 39.8824L22.3893 39.4797L22.3227 39.2784L22.256 39.0534L22.0601 38.2717L21.9739 37.802C21.9739 37.6994 22.0052 37.6165 22.064 37.5572L22.2443 37.4664L22.3344 37.423L22.401 37.3322L22.4677 37.2217L22.5813 37.0638L22.7851 36.973C22.8752 36.973 22.9262 36.9375 22.9419 36.8625L23.0085 36.6177L23.0751 36.3493C23.0908 36.2901 23.1496 36.2506 23.2554 36.2387C23.3455 36.2387 23.4121 36.3295 23.4592 36.5072L23.5728 37.0875V37.1783C23.5728 37.2809 23.5728 37.3717 23.5846 37.4467C23.5924 37.5217 23.6199 37.6441 23.6747 37.8178C23.7257 37.9875 23.8197 38.0902 23.953 38.1217C24.0431 38.0191 24.0941 37.9283 24.1097 37.8533L24.1999 37.273V35.2597C24.1685 35.1097 24.1528 34.9834 24.145 34.8808C24.1372 34.7781 24.1215 34.64 24.098 34.4663C24.0745 34.2926 24.0353 34.0715 23.9726 33.7952C23.9138 33.5189 23.8001 33.3649 23.6355 33.3373C23.4984 33.3373 23.3534 33.4162 23.1966 33.5741C23.0398 33.732 22.8556 33.9807 22.644 34.3242C22.5069 34.5492 22.3619 34.8531 22.2051 35.244C22.0483 35.6308 21.8837 36.0651 21.7191 36.5427C21.4487 37.4388 21.3116 38.4099 21.3116 39.4521V42.8312L21.3782 43.2339V43.8378C21.3782 44.0747 21.3664 44.2721 21.3429 44.4181C21.3194 44.5681 21.2998 44.655 21.2841 44.6747C21.2685 44.6984 21.2528 44.7142 21.2371 44.73H21.0294L20.7747 44.6155L20.5434 44.4773L20.3788 44.3155L20.3083 44.13V43.8299L20.2417 43.4589C20.2417 43.3839 20.1986 43.3286 20.1084 43.297L19.9987 43.3641V43.5654L19.9203 43.7234C19.885 43.7826 19.8498 43.8141 19.8145 43.8141C19.7087 43.7391 19.6381 43.672 19.6029 43.6128V42.7601L19.5362 42.693L19.403 42.7601L19.3129 42.918V42.9417L19.2188 43.0523L19.1248 43.1194C18.9876 43.1194 18.8857 43.0167 18.823 42.8075L18.7289 42.1601V35.8243L19.0189 33.8781C19.0503 33.6412 19.0777 33.432 19.1052 33.2504C19.1287 33.0728 19.1875 32.7886 19.2854 32.3978L19.599 31.099L19.8576 30.1595C19.9438 29.9503 20.03 29.8318 20.1163 29.8003H20.3318L20.3984 29.895L20.3749 30.0134L20.3514 30.1318L20.3279 30.2029L20.2848 30.3174V30.4082L20.3044 30.5187L20.3671 30.5621L20.4729 30.5187L20.6218 30.4279L20.708 30.3608C20.7786 30.345 20.8217 30.3292 20.8374 30.3174L20.9432 30.2937C21.0843 30.2937 21.1862 30.3332 21.241 30.4161C21.2998 30.499 21.339 30.6056 21.3703 30.7398V31.099L21.4174 31.2095L21.5075 31.1859L21.5976 31.0951L21.6447 31.0516L21.6917 30.9845L21.7622 30.9608C21.8524 30.9608 21.9229 31.0122 21.97 31.1187L22.0836 31.4109V31.478L22.017 31.8569L21.9073 32.4609L21.8171 32.9544L21.7505 33.3136L22.111 32.8201L22.6754 31.9912L23.4004 31.1859C23.6395 30.949 23.9059 30.7832 24.192 30.6924L24.3214 30.6687L24.4742 30.645C25.1287 30.645 25.646 30.949 26.0222 31.553C26.3984 32.157 26.5905 32.9307 26.5905 33.8702L26.5669 34.565L26.5787 34.561Z" fill="black"/>
<path d="M30.4272 37.6283C30.2351 37.4033 30.047 37.127 29.8667 36.7993L29.71 37.3401L29.5532 38.1296V38.5362C29.518 38.702 29.4944 38.852 29.4748 38.9863C29.4592 39.1205 29.4161 39.2863 29.3455 39.4837L29.2162 40.1824V40.2258L29.1535 40.2929H28.8988L28.6636 40.2258L28.3462 40.0916C28.26 40.0482 28.2168 39.9811 28.2168 39.8903V39.1284L28.1424 39.085L28.0209 39.1521L27.9464 39.31V39.3336L27.8563 39.5113L27.7466 39.5784C27.5389 39.5784 27.3743 39.4955 27.2567 39.3336C27.1509 39.1244 27.0999 38.8718 27.0999 38.5718V36.8269C27.0999 36.5743 27.1156 36.294 27.147 35.9861C27.1783 35.6782 27.2175 35.3269 27.2645 34.9203C27.3116 34.5176 27.3664 34.0913 27.4291 33.6452C27.4918 33.1991 27.5702 32.7491 27.6643 32.303C27.8524 31.4069 28.0601 30.5779 28.2952 29.816L28.3187 29.7726C28.3501 29.6976 28.3854 29.6463 28.4246 29.6147C28.4637 29.5831 28.5225 29.5713 28.6009 29.5713C28.6793 29.6147 28.7342 29.6542 28.7655 29.6818L28.9066 29.8831V30.0647L28.9732 30.1753L28.9066 30.3095V30.5582C28.8831 30.6332 28.8635 30.6766 28.84 30.6924V30.8069L28.9066 30.8977V30.9648L29.0634 30.9411L29.1535 30.7832V30.7595L29.2436 30.6016L29.4004 30.5345L29.4513 30.5582L29.5532 30.6253L29.7413 30.7595L29.8197 30.9174L29.7962 31.0753L29.7727 31.2766L29.7492 31.3003L29.7061 31.4819V31.6398L29.7296 31.6832L29.8393 31.7504C29.8981 31.7227 29.9373 31.6911 29.949 31.6596L30.0392 31.4582L30.0627 31.4148L30.1293 31.2569L30.2195 31.1661L30.3292 31.2095C30.4037 31.2411 30.4468 31.2687 30.4624 31.3003L30.5291 31.4345C30.5291 31.6003 30.486 31.8293 30.3958 32.1293L30.0862 33.0017L29.9295 33.4478L29.7962 33.9176L29.6865 34.4544L29.6434 34.9676L29.9099 34.565L30.1999 34.0281C30.3762 33.7281 30.5761 33.4636 30.7995 33.2346C31.0229 33.0017 31.2502 32.8794 31.4892 32.8636L31.6225 32.8873L31.7988 32.9307C31.9007 32.9623 31.9908 33.0136 32.0653 33.0886C32.1554 33.132 32.1986 33.207 32.1986 33.3136L32.1554 33.5386L32.0888 33.6965L31.9987 33.8307L31.9752 33.8978V33.9215H32.0418L32.0849 33.8781V33.8544L32.1515 33.811L32.175 33.7873L32.1986 33.811L32.175 33.8347L32.1515 33.9018V33.9452L32.175 34.0123L32.3514 33.9018L32.4846 33.8347H32.5278L32.6375 33.9018L32.7041 33.9689L32.7472 34.036C32.7629 34.4229 32.6884 34.79 32.5238 35.1334C32.3906 35.4769 32.2064 35.7966 31.9673 36.0966L32.0771 36.1203H32.4102L32.6101 36.0966L32.8334 36.0532L33.0098 36.0098L33.1861 35.919L33.2959 35.8756C33.2959 36.0414 33.2645 36.1677 33.2057 36.2545L33.0059 36.4322C32.9314 36.448 32.8883 36.4638 32.8726 36.4835H32.7159V36.598L32.7825 36.6177H33.049L32.9824 36.7875L32.8491 36.9098H32.806L32.8726 36.9533H32.9628C33.0647 36.9375 33.1313 36.9217 33.1626 36.9098L33.3194 36.8743C33.3194 37.1072 33.2057 37.3046 32.9824 37.4704L32.2887 37.8296L31.7283 37.9638L31.3481 37.9875C30.917 37.9559 30.6035 37.8454 30.4076 37.652L30.4272 37.6283Z" fill="black"/>
<path d="M34.5343 39.8666C34.1777 39.5823 33.8602 39.2468 33.578 38.8599L33.3782 38.5915L33.2449 38.3231C33.1861 38.1889 33.1352 37.9559 33.0882 37.6283L33.0451 36.5546C33.0451 36.2111 33.0882 35.8164 33.1783 35.3703C33.2214 35.1611 33.2724 34.9676 33.3233 34.79C33.3743 34.6123 33.4762 34.3715 33.6251 34.0755C34.0679 33.0017 34.7067 32.0188 35.5375 31.1306C36.3684 30.2424 37.258 29.7963 38.2025 29.7963C38.3044 29.7963 38.4259 29.8358 38.5591 29.9068C38.6923 29.9818 38.8178 30.0766 38.9353 30.199C39.1705 30.424 39.3978 30.72 39.6133 31.0951C39.8289 31.4701 39.9347 31.8569 39.9347 32.2596C39.9347 33.1991 39.6721 33.8939 39.147 34.34C38.6218 34.786 37.8262 35.2124 36.7564 35.615L36.1332 35.84L35.4435 36.0651C35.4435 36.5111 35.5375 36.8862 35.7217 37.1862C35.9059 37.4862 36.2586 37.6322 36.776 37.6322C36.9406 37.6322 37.1326 37.5928 37.352 37.5138L38.1084 37.1822L38.418 36.9927L38.7511 36.8033L39.3272 36.4638L39.6368 36.1874L39.7152 36.0808L39.8289 36.0374H39.8681L39.9268 36.0808L40.017 36.148L39.9268 36.3059L39.8249 36.4401L39.7857 36.4835L39.7466 36.5269L39.5859 36.7282L39.5271 36.8388L39.5859 36.9059H39.6251L39.6839 36.8822L39.7622 36.7914L39.821 36.7243L39.8798 36.6809L39.919 36.7243L39.9856 36.7914L39.919 36.9493L39.7857 37.1506L39.629 37.352L39.5624 37.5099L39.6212 37.5533L39.7191 37.4428H39.7779L39.8367 37.3757H39.8759L39.9151 37.4428L39.9817 37.5336C39.9503 37.577 39.9308 37.6165 39.9151 37.6441C39.8406 37.7625 39.7544 37.877 39.6603 37.9796C39.5624 38.0823 38.9745 38.5402 37.8929 39.3455L37.6029 39.5231L37.0464 39.8153L36.9131 39.906C36.8387 39.9218 36.7955 39.9376 36.7799 39.9495L36.2234 40.1942L35.8001 40.285C35.3259 40.285 34.8948 40.1429 34.5108 39.8587L34.5343 39.8666ZM37.5323 33.0136L37.4657 32.7846C37.4226 32.5872 37.3364 32.4293 37.2188 32.307C37.1287 32.1846 37.015 32.1096 36.8818 32.078C36.776 32.1214 36.7093 32.1609 36.678 32.1885L36.4742 32.4333L36.1372 33.1044L35.8432 33.9097L35.5493 34.9637L35.4357 35.6585L35.5689 35.6348L35.7688 35.5677L35.9686 35.5006L36.1019 35.4098L36.1254 35.3426L36.0588 35.2519L35.9255 35.2084H35.8824C35.808 35.1926 35.7649 35.1769 35.7492 35.165L35.7061 35.0979C35.7492 35.0229 35.7884 34.9795 35.8158 34.9637L36.1058 34.8295L36.3488 34.7189C36.3919 34.7031 36.4232 34.6834 36.4389 34.6518C36.4546 34.6202 36.4703 34.6005 36.482 34.5847L36.4154 34.5413H35.9922L35.949 34.4268C35.9647 34.3952 35.9882 34.3636 36.0274 34.3242C36.0627 34.2847 36.1215 34.2452 36.1959 34.1979L36.7524 33.9018L37.2854 33.6057C37.4343 33.4991 37.5166 33.3689 37.5284 33.2189V33.0136H37.5323Z" fill="black"/>
<path d="M40.3344 34.6952L40.6675 34.0242C40.7106 33.9334 40.7851 33.8149 40.8909 33.6649C40.9928 33.5149 41.0908 33.3886 41.177 33.282L41.7962 32.5636L42.6584 31.7346L43.258 31.2648L45.2959 29.8989C45.6055 29.6739 45.8328 29.5634 45.9817 29.5634C46.0718 29.595 46.1306 29.6266 46.1581 29.666C46.1894 29.7016 46.2012 29.7687 46.2012 29.8555L46.1777 29.9226L46.0875 30.0805L45.9543 30.2147L45.7544 30.3727L45.6878 30.4398L45.7113 30.5503L45.7779 30.574L45.9112 30.5306L46.0209 30.5069H46.064L46.1737 30.574L46.2168 30.6845C46.1581 30.7595 46.111 30.8108 46.0836 30.8424L45.8406 30.9766L45.5741 31.1108C45.531 31.1424 45.4918 31.1937 45.4644 31.2687L45.531 31.3595L45.6643 31.3832H45.7074L45.9072 31.4069C45.966 31.4385 45.9974 31.4661 45.9974 31.4977L45.9739 31.6082V31.6753L45.9308 31.7859V31.8964L45.9543 31.9872L45.9974 32.0306H46.0405L46.0836 32.1214L46.1267 32.3464C46.1267 32.453 45.9425 32.6465 45.5741 32.9267L44.3828 33.7991L44.2926 33.8426L44.2495 33.886C43.8223 34.1544 43.4461 34.4268 43.1248 34.7031C42.7995 34.9795 42.631 35.1926 42.6153 35.3426C42.6427 35.4019 42.6741 35.4413 42.7054 35.4532L42.9484 35.4966L43.2149 35.4729L43.6577 35.4058H43.7479L43.8576 35.3821C44.0183 35.3821 44.1437 35.3663 44.2338 35.3387L44.563 35.315C44.9588 35.315 45.2567 35.4413 45.4448 35.694C45.6525 35.919 45.7818 36.1795 45.8406 36.4756V36.6532L45.8641 36.8111C45.8641 37.6165 45.5467 38.3625 44.9079 39.0494C44.2691 39.7363 43.5872 40.2969 42.8622 40.7271C42.4468 40.9522 41.9726 41.1693 41.4396 41.3745C40.9811 41.5403 40.6166 41.6193 40.3501 41.6193C40.26 41.6193 40.1855 41.5601 40.1267 41.4417L40.0836 41.039C40.1385 40.964 40.1816 40.9127 40.2169 40.8811L40.4363 40.7469L40.6754 40.6561L40.7733 40.5653V40.4982H40.6597L40.5029 40.5219C40.3854 40.5219 40.2913 40.4982 40.2247 40.4548C40.1581 40.4113 40.115 40.3442 40.1032 40.2534L40.1385 39.985L40.2129 39.8074V39.2468C40.2404 39.2034 40.2717 39.1718 40.2991 39.156C40.3854 39.081 40.4873 39.0218 40.6048 38.9784L41.5023 38.5757C41.663 38.5007 41.808 38.4336 41.9373 38.3744C42.0666 38.3152 42.2155 38.2323 42.3762 38.1296C42.6388 37.9796 42.776 37.8178 42.7916 37.6362C42.7485 37.5928 42.7015 37.5651 42.6584 37.5572C42.6153 37.5493 42.5487 37.5375 42.4585 37.5257L41.6826 37.502H41.0163C40.8988 37.4704 40.7655 37.4546 40.6166 37.4467C40.4677 37.4388 40.3736 37.3835 40.3266 37.277L40.2169 36.5585V35.3032C40.2169 35.0782 40.2521 34.8689 40.3266 34.6755L40.3344 34.6952Z" fill="black"/>
<path d="M46.4677 34.6952L46.8008 34.0242C46.8439 33.9334 46.9183 33.8149 47.0242 33.6649C47.1261 33.5149 47.224 33.3886 47.3102 33.282L47.9294 32.5636L48.7916 31.7346L49.3912 31.2648L51.4291 29.8989C51.7387 29.6739 51.966 29.5634 52.1149 29.5634C52.2051 29.595 52.2639 29.6266 52.2913 29.666C52.3227 29.7016 52.3344 29.7687 52.3344 29.8555L52.3109 29.9226L52.2208 30.0805L52.0875 30.2147L51.8876 30.3727L51.821 30.4398L51.8445 30.5503L51.9112 30.574L52.0444 30.5306L52.1541 30.5069H52.1972L52.307 30.574L52.3501 30.6845C52.2913 30.7595 52.2443 30.8108 52.2168 30.8424L51.9739 30.9766L51.7074 31.1108C51.6643 31.1424 51.6251 31.1937 51.5976 31.2687L51.6643 31.3595L51.7975 31.3832H51.8406L52.0405 31.4069C52.0993 31.4385 52.1306 31.4661 52.1306 31.4977L52.1071 31.6082V31.6753L52.064 31.7859V31.8964L52.0875 31.9872L52.1306 32.0306H52.1737L52.2168 32.1214L52.26 32.3464C52.26 32.453 52.0758 32.6465 51.7074 32.9267L50.516 33.7991L50.4259 33.8426L50.3827 33.886C49.9556 34.1544 49.5794 34.4268 49.258 34.7031C48.9327 34.9795 48.7642 35.1926 48.7485 35.3426C48.776 35.4019 48.8073 35.4413 48.8387 35.4532L49.0816 35.4966L49.3481 35.4729L49.791 35.4058H49.8811L49.9908 35.3821C50.1515 35.3821 50.2769 35.3663 50.3671 35.3387L50.6963 35.315C51.0921 35.315 51.3899 35.4413 51.578 35.694C51.7858 35.919 51.9151 36.1795 51.9739 36.4756V36.6532L51.9974 36.8111C51.9974 37.6165 51.6799 38.3625 51.0411 39.0494C50.4023 39.7363 49.7204 40.2969 48.9954 40.7271C48.58 40.9522 48.1058 41.1693 47.5728 41.3745C47.1143 41.5403 46.7498 41.6193 46.4833 41.6193C46.3932 41.6193 46.3187 41.5601 46.26 41.4417L46.2168 41.039C46.2717 40.964 46.3148 40.9127 46.3501 40.8811L46.5696 40.7469L46.8086 40.6561L46.9066 40.5653V40.4982H46.7929L46.6362 40.5219C46.5186 40.5219 46.4246 40.4982 46.3579 40.4548C46.2913 40.4113 46.2482 40.3442 46.2364 40.2534L46.2717 39.985L46.3462 39.8074V39.2468C46.3736 39.2034 46.405 39.1718 46.4324 39.156C46.5186 39.081 46.6205 39.0218 46.7381 38.9784L47.6355 38.5757C47.7962 38.5007 47.9412 38.4336 48.0705 38.3744C48.1999 38.3152 48.3488 38.2323 48.5095 38.1296C48.772 37.9796 48.9092 37.8178 48.9249 37.6362C48.8818 37.5928 48.8347 37.5651 48.7916 37.5572C48.7485 37.5493 48.6819 37.5375 48.5918 37.5257L47.8158 37.502H47.1496C47.032 37.4704 46.8988 37.4546 46.7498 37.4467C46.6009 37.4388 46.5069 37.3835 46.4598 37.277L46.3501 36.5585V35.3032C46.3501 35.0782 46.3854 34.8689 46.4598 34.6755L46.4677 34.6952Z" fill="black"/>
<path d="M59.9334 34.3715L59.757 35.1295C59.5493 35.844 59.2475 36.5151 58.8478 37.1388C58.6558 37.4822 58.4598 37.7862 58.26 38.0546C58.0601 38.3231 57.8406 38.5757 57.6055 38.8126C57.2959 39.1244 56.9824 39.3929 56.6728 39.6179C56.3749 39.7797 56.1084 39.8784 55.8733 39.91H55.6499L55.45 39.8666L55.2933 39.8231H55.0503V39.8824L55.0934 39.9416L55.2031 40.0008H55.3795L55.4892 40.1113H55.599L55.2227 40.1784H54.58C54.4154 40.1784 54.2587 40.1468 54.1019 40.0837C53.9451 40.0205 53.7805 39.9337 53.6003 39.8192L53.2907 39.5271L53.0007 39.1876L52.7773 38.8955L52.6205 38.6231C52.5029 38.4139 52.4128 38.1967 52.354 37.9678L52.2639 37.0677C52.2639 35.5795 52.597 34.2807 53.2632 33.1675C53.9295 32.0543 54.8779 31.0872 56.1084 30.2582L56.2652 30.3016L56.4415 30.3687H56.4651L56.708 30.4358H56.9314L56.8883 30.3687L56.7982 30.2779L56.7315 30.2345L56.5317 30.124L56.4415 30.0568L56.6179 29.9226L56.8413 29.7884L57.1509 29.6305L57.3939 29.5634C57.7035 29.5634 58.0091 29.666 58.307 29.8753C58.6048 30.0845 58.8556 30.3213 59.0634 30.5898L59.2632 30.8345L59.42 31.0595L59.5963 31.3951L59.7531 31.7069C59.8432 32.0069 59.8981 32.2043 59.9216 32.3109C59.9451 32.4135 59.9569 32.5557 59.9569 32.7372L60 33.6097L59.9334 34.3676V34.3715ZM57.5349 33.4202C57.4918 33.211 57.4017 33.0254 57.2685 32.8596L57.2253 32.8162L57.1822 32.7491L57.0255 32.6149L56.8922 32.457L56.6688 32.3464C56.6257 32.303 56.563 32.2793 56.4925 32.2793C56.1829 32.2793 55.9164 32.457 55.7048 32.8162C55.4892 33.1754 55.2854 33.6057 55.0934 34.115L54.87 35.0111L54.8034 35.6821V36.0848L54.87 36.5309C54.9131 36.8585 55.0072 37.1506 55.1483 37.4033C55.2894 37.6559 55.5362 37.7822 55.8929 37.7822C56.2769 37.7822 56.6022 37.573 56.8609 37.1546C57.1195 36.7361 57.2998 36.2743 57.4056 35.765L57.5624 34.8453L57.6055 34.1071L57.5389 33.4123L57.5349 33.4202Z" fill="black"/>
<path d="M4.00131 47.2249C4.00131 47.5012 3.9582 47.7538 3.87198 47.9828C3.78576 48.2117 3.66427 48.4091 3.50359 48.5789C3.34291 48.7486 3.1548 48.8749 2.93534 48.9657C2.71195 49.0565 2.46897 49.1039 2.19856 49.1039C1.92815 49.1039 1.68517 49.0565 1.46571 48.9657C1.24624 48.8749 1.05421 48.7447 0.897452 48.5789C0.740692 48.4131 0.615284 48.2157 0.529066 47.9828C0.442847 47.7538 0.399738 47.5012 0.399738 47.2249C0.399738 46.9485 0.442847 46.6959 0.529066 46.4669C0.615284 46.238 0.736773 46.0366 0.897452 45.8708C1.05813 45.705 1.24624 45.5748 1.46571 45.48C1.68517 45.3892 1.93207 45.3419 2.19856 45.3419C2.46506 45.3419 2.71195 45.3892 2.93534 45.48C3.15872 45.5708 3.34683 45.7011 3.50359 45.8708C3.66035 46.0406 3.78576 46.238 3.87198 46.4669C3.9582 46.6959 4.00131 46.9485 4.00131 47.2249ZM3.49183 47.2249C3.49183 46.9998 3.46048 46.7946 3.4017 46.6169C3.33899 46.4353 3.25278 46.2853 3.14304 46.163C3.02939 46.0406 2.89615 45.9419 2.73547 45.8748C2.57479 45.8077 2.39843 45.7761 2.19856 45.7761C1.99869 45.7761 1.82626 45.8077 1.66558 45.8748C1.5049 45.9419 1.36773 46.0366 1.258 46.163C1.14827 46.2893 1.05813 46.4393 0.995427 46.6169C0.932723 46.7985 0.90529 46.9998 0.90529 47.2249C0.90529 47.4499 0.936642 47.6551 0.995427 47.8328C1.05813 48.0104 1.14435 48.1644 1.258 48.2867C1.37165 48.4091 1.50882 48.5039 1.66558 48.571C1.82234 48.6381 2.00261 48.6697 2.19856 48.6697C2.39451 48.6697 2.57479 48.6381 2.73547 48.571C2.89615 48.5039 3.02939 48.4091 3.14304 48.2867C3.25669 48.1644 3.34291 48.0104 3.4017 47.8328C3.4644 47.6551 3.49183 47.4499 3.49183 47.2249Z" fill="black"/>
<path d="M4.50294 49.0644V46.463H4.76159C4.81254 46.463 4.84389 46.4709 4.86349 46.4906C4.88308 46.5103 4.89484 46.5419 4.90268 46.5893L4.93403 46.9959C5.02417 46.8143 5.12998 46.6722 5.26322 46.5696C5.39255 46.4669 5.54539 46.4156 5.72175 46.4156C5.79229 46.4156 5.85891 46.4235 5.91378 46.4393C5.96865 46.4551 6.02351 46.4788 6.07446 46.5064L6.01567 46.8498C6.00392 46.8933 5.97648 46.913 5.93729 46.913C5.91378 46.913 5.87851 46.9051 5.82756 46.8893C5.77661 46.8735 5.70999 46.8656 5.61985 46.8656C5.46309 46.8656 5.32985 46.913 5.22403 47.0038C5.11822 47.0946 5.02808 47.2327 4.95754 47.4064V49.0644H4.50294Z" fill="black"/>
<path d="M7.32462 46.4195C7.43827 46.4195 7.54017 46.4314 7.63814 46.4551C7.73612 46.4788 7.82626 46.5182 7.90464 46.5656H8.60614V46.7354C8.60614 46.7906 8.57087 46.8261 8.50033 46.8419L8.2064 46.8814C8.26519 46.9919 8.29262 47.1183 8.29262 47.2525C8.29262 47.3788 8.2691 47.4933 8.21816 47.5999C8.16721 47.7065 8.10451 47.7933 8.01829 47.8644C7.93207 47.9394 7.83018 47.9946 7.71261 48.0341C7.59503 48.0736 7.46571 48.0933 7.32462 48.0933C7.20313 48.0933 7.08948 48.0775 6.98367 48.0499C6.9288 48.0854 6.88961 48.1249 6.85826 48.1644C6.83083 48.2039 6.81515 48.2433 6.81515 48.2828C6.81515 48.346 6.83867 48.3933 6.88961 48.4289C6.94056 48.4604 7.00326 48.4841 7.08556 48.4999C7.16786 48.5157 7.258 48.5197 7.36381 48.5197H7.68125C7.79099 48.5197 7.8968 48.5276 7.99869 48.5473C8.10059 48.567 8.19464 48.5986 8.27694 48.642C8.35924 48.6855 8.42586 48.7447 8.47289 48.8236C8.52384 48.8986 8.54735 48.9973 8.54735 49.1197C8.54735 49.2342 8.51992 49.3408 8.46505 49.4473C8.41019 49.5539 8.33181 49.6487 8.22599 49.7276C8.1241 49.8105 7.99477 49.8776 7.84585 49.925C7.69693 49.9724 7.52841 50 7.3403 50C7.15219 50 6.98759 49.9803 6.84259 49.9447C6.69758 49.9092 6.58393 49.8579 6.48987 49.7947C6.39582 49.7316 6.32528 49.6566 6.27825 49.5737C6.23122 49.4908 6.20771 49.4039 6.20771 49.3131C6.20771 49.1828 6.2469 49.0763 6.3292 48.9855C6.41149 48.8947 6.52123 48.8236 6.66231 48.7723C6.58785 48.7368 6.53298 48.6933 6.48596 48.6341C6.44285 48.5789 6.41933 48.4999 6.41933 48.4052C6.41933 48.3697 6.42717 48.3302 6.43893 48.2868C6.45068 48.2473 6.4742 48.2078 6.50163 48.1683C6.52907 48.1288 6.56434 48.0933 6.60353 48.0538C6.64272 48.0183 6.69366 47.9867 6.74461 47.9591C6.61528 47.888 6.51731 47.7933 6.44677 47.6749C6.37622 47.5564 6.33703 47.4183 6.33703 47.2564C6.33703 47.1301 6.36055 47.0156 6.41149 46.909C6.46244 46.8025 6.52906 46.7156 6.61528 46.6446C6.7015 46.5735 6.8034 46.5143 6.92488 46.4748C7.04637 46.4353 7.1757 46.4156 7.3207 46.4156L7.32462 46.4195ZM8.13194 49.1947C8.13194 49.1276 8.11234 49.0763 8.07707 49.0368C8.0418 48.9973 7.99477 48.9657 7.93207 48.942C7.86937 48.9184 7.79882 48.9026 7.72044 48.8947C7.64206 48.8828 7.55584 48.8789 7.46963 48.8789H7.19922C7.10908 48.8789 7.01894 48.867 6.93664 48.8434C6.83867 48.8907 6.76029 48.946 6.7015 49.0131C6.64272 49.0802 6.61136 49.1592 6.61136 49.2539C6.61136 49.3131 6.62704 49.3684 6.65447 49.4158C6.68583 49.4671 6.72893 49.5105 6.79164 49.546C6.85434 49.5816 6.9288 49.6131 7.02286 49.6329C7.11692 49.6526 7.22273 49.6645 7.35206 49.6645C7.48138 49.6645 7.58328 49.6526 7.68125 49.6289C7.77923 49.6052 7.86153 49.5737 7.92815 49.5302C7.99477 49.4868 8.04572 49.4394 8.08099 49.3802C8.11626 49.321 8.13586 49.2579 8.13586 49.1868L8.13194 49.1947ZM7.32462 47.7933C7.41476 47.7933 7.49706 47.7815 7.5676 47.7538C7.63814 47.7301 7.69693 47.6907 7.74396 47.6472C7.79099 47.6038 7.82626 47.5446 7.84977 47.4814C7.87328 47.4183 7.88504 47.3472 7.88504 47.2683C7.88504 47.1104 7.83801 46.984 7.74004 46.8893C7.64598 46.7946 7.5049 46.7472 7.3207 46.7472C7.13651 46.7472 6.99935 46.7946 6.90529 46.8893C6.80731 46.984 6.76029 47.1104 6.76029 47.2683C6.76029 47.3472 6.77204 47.4143 6.79556 47.4814C6.81907 47.5446 6.85434 47.5999 6.90529 47.6472C6.95624 47.6946 7.0111 47.7301 7.08164 47.7538C7.15219 47.7815 7.23057 47.7933 7.3207 47.7933H7.32462Z" fill="black"/>
<path d="M10.8557 49.0644H10.6558C10.6127 49.0644 10.5774 49.0565 10.55 49.0447C10.5225 49.0289 10.5069 49.0013 10.4951 48.9578L10.4442 48.717C10.3775 48.7802 10.3109 48.8355 10.2443 48.8828C10.1777 48.9302 10.111 48.9736 10.0405 49.0052C9.96996 49.0368 9.89157 49.0644 9.81319 49.0802C9.73481 49.096 9.64468 49.1078 9.54278 49.1078C9.44089 49.1078 9.34683 49.0921 9.26061 49.0644C9.1744 49.0368 9.09602 48.9934 9.03331 48.9381C8.96669 48.8828 8.91574 48.8078 8.88047 48.7249C8.84128 48.6381 8.82169 48.5354 8.82169 48.417C8.82169 48.3144 8.84912 48.2157 8.90398 48.121C8.95885 48.0262 9.04899 47.9394 9.1744 47.8683C9.2998 47.7933 9.4644 47.7341 9.66427 47.6867C9.86806 47.6393 10.115 47.6157 10.405 47.6157V47.4104C10.405 47.2091 10.3619 47.0551 10.2756 46.9485C10.1894 46.8459 10.064 46.7906 9.89549 46.7906C9.78576 46.7906 9.69171 46.8064 9.61724 46.834C9.54278 46.8617 9.47616 46.8933 9.42129 46.9288C9.36643 46.9643 9.3194 46.9959 9.28021 47.0235C9.24102 47.0512 9.20183 47.0669 9.16264 47.0669C9.13129 47.0669 9.10385 47.0591 9.08034 47.0433C9.05683 47.0275 9.04115 47.0077 9.02547 46.984L8.94317 46.838C9.08426 46.6998 9.24102 46.5972 9.40562 46.5261C9.57022 46.459 9.75441 46.4235 9.95428 46.4235C10.0993 46.4235 10.2286 46.4472 10.3383 46.4945C10.4481 46.5419 10.546 46.609 10.6205 46.6959C10.695 46.7827 10.7538 46.8854 10.7929 47.0077C10.8321 47.1301 10.8517 47.2643 10.8517 47.4064V49.0723L10.8557 49.0644ZM9.67995 48.7841C9.75833 48.7841 9.83279 48.7762 9.89941 48.7605C9.96604 48.7447 10.0287 48.721 10.0875 48.6894C10.1463 48.6578 10.2012 48.6223 10.256 48.5789C10.3109 48.5354 10.3619 48.4881 10.4128 48.4328V47.8959C10.2051 47.8959 10.0248 47.9078 9.87982 47.9354C9.73481 47.963 9.61332 47.9986 9.52319 48.042C9.43305 48.0854 9.36643 48.1367 9.32332 48.196C9.28021 48.2552 9.26061 48.3183 9.26061 48.3933C9.26061 48.4683 9.27237 48.5236 9.29197 48.571C9.31548 48.6223 9.34291 48.6618 9.3821 48.6933C9.42129 48.7249 9.4644 48.7486 9.51535 48.7644C9.5663 48.7802 9.62116 48.7881 9.67995 48.7881V48.7841Z" fill="black"/>
<path d="M11.4435 49.0644V46.463H11.7139C11.7766 46.463 11.8197 46.4946 11.8354 46.5577L11.8707 46.8419C11.9843 46.7156 12.1097 46.6169 12.2469 46.538C12.3841 46.459 12.5447 46.4235 12.7289 46.4235C12.87 46.4235 12.9954 46.4472 13.1012 46.4945C13.2071 46.5419 13.3011 46.609 13.3717 46.6959C13.4422 46.7827 13.4971 46.8854 13.5363 47.0077C13.5754 47.1301 13.5911 47.2643 13.5911 47.4104V49.0684H13.1365V47.4104C13.1365 47.213 13.0934 47.0591 13.0033 46.9525C12.9131 46.8459 12.776 46.7906 12.5957 46.7906C12.4624 46.7906 12.337 46.8222 12.2195 46.8893C12.1019 46.9564 11.9961 47.0433 11.8981 47.1538V49.0684H11.4435V49.0644Z" fill="black"/>
<path d="M14.7825 45.6458C14.7825 45.6892 14.7747 45.7327 14.7551 45.7721C14.7355 45.8116 14.712 45.8432 14.6845 45.8748C14.6532 45.9064 14.6218 45.9261 14.5826 45.9458C14.5434 45.9616 14.5003 45.9695 14.4572 45.9695C14.4141 45.9695 14.371 45.9616 14.3318 45.9458C14.2926 45.93 14.2613 45.9064 14.2299 45.8748C14.1986 45.8432 14.175 45.8116 14.1594 45.7721C14.1437 45.7327 14.1359 45.6932 14.1359 45.6458C14.1359 45.5984 14.1437 45.559 14.1594 45.5195C14.175 45.48 14.1986 45.4445 14.2299 45.4129C14.2613 45.3813 14.2926 45.3576 14.3318 45.3419C14.371 45.3261 14.4102 45.3142 14.4572 45.3142C14.5042 45.3142 14.5434 45.3221 14.5826 45.3419C14.6218 45.3576 14.6571 45.3813 14.6845 45.4129C14.7159 45.4445 14.7394 45.48 14.7551 45.5195C14.7747 45.559 14.7825 45.6024 14.7825 45.6458ZM14.6806 46.463V49.0644H14.226V46.463H14.6806Z" fill="black"/>
<path d="M17.1417 46.9248C17.1417 46.9248 17.1143 46.9564 17.1025 46.9683C17.0908 46.9801 17.0712 46.984 17.0438 46.984C17.0163 46.984 16.9889 46.9722 16.9615 46.9525C16.9301 46.9327 16.8948 46.909 16.8478 46.8814C16.8008 46.8577 16.7459 46.834 16.6793 46.8104C16.6127 46.7906 16.5343 46.7788 16.4402 46.7788C16.3148 46.7788 16.2051 46.8025 16.1071 46.8459C16.0091 46.8933 15.9308 46.9564 15.8641 47.0433C15.7975 47.1301 15.7505 47.2327 15.7152 47.3551C15.6839 47.4775 15.6643 47.6117 15.6643 47.7617C15.6643 47.9117 15.6839 48.0578 15.7191 48.1802C15.7544 48.3025 15.8054 48.4052 15.8681 48.4881C15.9347 48.571 16.0131 48.6341 16.1032 48.6776C16.1973 48.721 16.2991 48.7447 16.4167 48.7447C16.5343 48.7447 16.6166 48.7328 16.691 48.7052C16.7655 48.6776 16.8204 48.6499 16.8713 48.6183C16.9223 48.5868 16.9575 48.5552 16.9889 48.5315C17.0202 48.5078 17.0516 48.492 17.079 48.492C17.1182 48.492 17.1457 48.5078 17.1652 48.5354L17.2946 48.7012C17.1809 48.8394 17.0438 48.942 16.8752 49.0052C16.7067 49.0684 16.5304 49.0999 16.3423 49.0999C16.1816 49.0999 16.0327 49.0684 15.8916 49.0092C15.7544 48.9499 15.6329 48.8631 15.531 48.7486C15.4291 48.6341 15.3468 48.496 15.292 48.3302C15.2332 48.1644 15.2057 47.9749 15.2057 47.7617C15.2057 47.5683 15.2332 47.3906 15.288 47.2249C15.3429 47.0591 15.4213 46.9169 15.5232 46.7985C15.6251 46.6801 15.7544 46.5853 15.9033 46.5182C16.0562 46.4511 16.2286 46.4195 16.4246 46.4195C16.6048 46.4195 16.7655 46.4472 16.9027 46.5064C17.0438 46.5656 17.1652 46.6485 17.2711 46.7551L17.1496 46.9209L17.1417 46.9248Z" fill="black"/>
<path d="M21.1862 48.3025C21.2136 48.3025 21.2371 48.3144 21.2606 48.3341L21.4526 48.5473C21.3037 48.721 21.1234 48.8591 20.9079 48.9539C20.6963 49.0526 20.4376 49.0999 20.1359 49.0999C19.8733 49.0999 19.6342 49.0526 19.4187 48.9618C19.2031 48.871 19.0229 48.7407 18.87 48.5749C18.7172 48.4091 18.5996 48.2117 18.5173 47.9788C18.435 47.7459 18.3919 47.4933 18.3919 47.217C18.3919 46.9406 18.435 46.684 18.5251 46.4551C18.6153 46.2261 18.7407 46.0248 18.9014 45.859C19.062 45.6932 19.258 45.5629 19.4814 45.4721C19.7048 45.3813 19.9556 45.334 20.226 45.334C20.4964 45.334 20.7276 45.3774 20.9197 45.4603C21.1156 45.5432 21.288 45.6577 21.437 45.8037L21.2763 46.0327C21.2763 46.0327 21.2528 46.0643 21.2371 46.0761C21.2214 46.088 21.1979 46.0919 21.1705 46.0919C21.147 46.0919 21.1234 46.084 21.0999 46.0682C21.0764 46.0524 21.0451 46.0327 21.0137 46.009C20.9784 45.9853 20.9393 45.9577 20.8922 45.93C20.8452 45.9024 20.7903 45.8787 20.7276 45.8511C20.6649 45.8274 20.5905 45.8077 20.5082 45.7919C20.4259 45.7761 20.3279 45.7682 20.2182 45.7682C20.0222 45.7682 19.8419 45.8037 19.6813 45.8708C19.5206 45.9379 19.3795 46.0366 19.2619 46.159C19.1443 46.2853 19.0542 46.4353 18.9876 46.6169C18.921 46.7985 18.8896 46.9959 18.8896 47.2209C18.8896 47.4459 18.921 47.6551 18.9876 47.8328C19.0542 48.0144 19.1404 48.1644 19.2541 48.2907C19.3677 48.417 19.501 48.5078 19.6538 48.5749C19.8067 48.642 19.9752 48.6736 20.1515 48.6736C20.2613 48.6736 20.3592 48.6657 20.4455 48.6539C20.5317 48.642 20.614 48.6223 20.6884 48.5947C20.7629 48.567 20.8295 48.5315 20.8961 48.492C20.9628 48.4525 21.0255 48.4012 21.0882 48.342C21.1156 48.3144 21.147 48.3025 21.1705 48.3025H21.1862Z" fill="black"/>
<path d="M22.9771 46.4195C23.1653 46.4195 23.3377 46.4511 23.4866 46.5143C23.6395 46.5774 23.7688 46.6682 23.8746 46.7827C23.9804 46.8972 24.0627 47.0393 24.1176 47.2051C24.1764 47.3709 24.2038 47.5564 24.2038 47.7578C24.2038 47.9591 24.1764 48.1486 24.1176 48.3144C24.0588 48.4802 23.9804 48.6183 23.8746 48.7368C23.7688 48.8552 23.6395 48.942 23.4866 49.0052C23.3338 49.0684 23.1653 49.0999 22.9771 49.0999C22.789 49.0999 22.6166 49.0684 22.4677 49.0052C22.3148 48.942 22.1855 48.8552 22.0797 48.7368C21.9739 48.6223 21.8916 48.4802 21.8328 48.3144C21.774 48.1486 21.7466 47.967 21.7466 47.7578C21.7466 47.5486 21.774 47.3709 21.8328 47.2051C21.8916 47.0393 21.9739 46.8972 22.0797 46.7827C22.1855 46.6682 22.3148 46.5774 22.4677 46.5143C22.6205 46.4511 22.789 46.4195 22.9771 46.4195ZM22.9771 48.7447C23.2319 48.7447 23.4239 48.6578 23.5493 48.4881C23.6747 48.3144 23.7374 48.0775 23.7374 47.7657C23.7374 47.4538 23.6747 47.213 23.5493 47.0433C23.4239 46.8696 23.2319 46.7827 22.9771 46.7827C22.8478 46.7827 22.7342 46.8064 22.6401 46.8498C22.546 46.8933 22.4637 46.9604 22.401 47.0433C22.3383 47.1262 22.2913 47.2288 22.26 47.3512C22.2286 47.4735 22.2129 47.6117 22.2129 47.7657C22.2129 47.9196 22.2286 48.0578 22.26 48.1802C22.2913 48.3025 22.3383 48.4052 22.401 48.4881C22.4637 48.571 22.546 48.6341 22.6401 48.6776C22.7342 48.721 22.8478 48.7447 22.9771 48.7447Z" fill="black"/>
<path d="M24.7681 49.0644V46.8538L24.482 46.8222C24.4468 46.8143 24.4154 46.8025 24.3958 46.7827C24.3723 46.7669 24.3605 46.7393 24.3605 46.7038V46.5182H24.7681V46.2656C24.7681 46.1156 24.7877 45.9853 24.8308 45.8708C24.8739 45.7564 24.9327 45.6577 25.0111 45.5787C25.0895 45.4998 25.1835 45.4405 25.2894 45.3971C25.3991 45.3576 25.5206 45.334 25.6577 45.334C25.7714 45.334 25.8811 45.3498 25.9791 45.3853L25.9673 45.6142C25.9673 45.6498 25.9517 45.6695 25.9242 45.6774C25.8968 45.6853 25.8576 45.6892 25.8106 45.6892H25.7322C25.6538 45.6892 25.5833 45.7011 25.5206 45.7208C25.4579 45.7406 25.403 45.7761 25.356 45.8195C25.3089 45.8669 25.2737 45.9261 25.2502 46.0011C25.2267 46.0761 25.2149 46.1708 25.2149 46.2814V46.5222H25.9634V46.8538H25.2306V49.0723H24.776L24.7681 49.0644Z" fill="black"/>
<path d="M26.3828 49.0644V46.8538L26.0967 46.8222C26.0614 46.8143 26.03 46.8025 26.0105 46.7827C25.9869 46.7669 25.9752 46.7393 25.9752 46.7038V46.5182H26.3828V46.2656C26.3828 46.1156 26.4024 45.9853 26.4455 45.8708C26.4886 45.7564 26.5474 45.6577 26.6257 45.5787C26.7041 45.4998 26.7982 45.4405 26.904 45.3971C27.0137 45.3576 27.1352 45.334 27.2724 45.334C27.386 45.334 27.4958 45.3498 27.5937 45.3853L27.582 45.6142C27.582 45.6498 27.5663 45.6695 27.5389 45.6774C27.5114 45.6853 27.4722 45.6892 27.4252 45.6892H27.3468C27.2685 45.6892 27.1979 45.7011 27.1352 45.7208C27.0725 45.7406 27.0176 45.7761 26.9706 45.8195C26.9236 45.8669 26.8883 45.9261 26.8648 46.0011C26.8413 46.0761 26.8295 46.1708 26.8295 46.2814V46.5222H27.5781V46.8538H26.8452V49.0723H26.3906L26.3828 49.0644Z" fill="black"/>
<path d="M28.9184 46.4195C29.0712 46.4195 29.2162 46.4472 29.3455 46.4985C29.4749 46.5498 29.5885 46.6248 29.6865 46.7235C29.7805 46.8222 29.855 46.9446 29.9099 47.0867C29.9647 47.2327 29.9922 47.3946 29.9922 47.5801C29.9922 47.6512 29.9843 47.6986 29.9686 47.7222C29.953 47.7459 29.9255 47.7578 29.8824 47.7578H28.1659C28.1659 47.9236 28.1894 48.0657 28.2325 48.1881C28.2717 48.3104 28.3305 48.4091 28.401 48.492C28.4716 48.5749 28.5578 48.6341 28.6558 48.6736C28.7538 48.7131 28.8635 48.7328 28.9889 48.7328C29.1025 48.7328 29.2005 48.721 29.2828 48.6934C29.3651 48.6657 29.4357 48.6381 29.4944 48.6065C29.5532 48.5749 29.6042 48.5473 29.6434 48.5197C29.6826 48.492 29.7178 48.4802 29.7453 48.4802C29.7845 48.4802 29.8119 48.496 29.8315 48.5236L29.9608 48.6894C29.9059 48.7565 29.8393 48.8157 29.7609 48.867C29.6826 48.9184 29.6003 48.9578 29.5101 48.9934C29.42 49.0249 29.3298 49.0486 29.2319 49.0684C29.1378 49.0842 29.0438 49.0921 28.9497 49.0921C28.7694 49.0921 28.6048 49.0605 28.4559 49.0013C28.307 48.942 28.1737 48.8513 28.064 48.7328C27.9543 48.6144 27.8681 48.4683 27.8093 48.2986C27.7466 48.1249 27.7191 47.9275 27.7191 47.7025C27.7191 47.5209 27.7466 47.3512 27.8014 47.1933C27.8563 47.0354 27.9347 46.8972 28.0405 46.7827C28.1424 46.6682 28.2717 46.5774 28.4206 46.5103C28.5696 46.4432 28.7381 46.4117 28.9262 46.4117L28.9184 46.4195ZM28.9301 46.759C28.7106 46.759 28.5382 46.8222 28.4128 46.9485C28.2874 47.0748 28.209 47.2525 28.1777 47.4775H29.5807C29.5807 47.3709 29.565 47.2722 29.5376 47.1854C29.5101 47.0985 29.467 47.0196 29.4082 46.9564C29.3534 46.8933 29.2828 46.8419 29.2044 46.8064C29.1261 46.7709 29.032 46.7551 28.9262 46.7551L28.9301 46.759Z" fill="black"/>
<path d="M31.4892 46.4195C31.6421 46.4195 31.7871 46.4472 31.9164 46.4985C32.0457 46.5498 32.1594 46.6248 32.2573 46.7235C32.3514 46.8222 32.4259 46.9446 32.4807 47.0867C32.5356 47.2327 32.563 47.3946 32.563 47.5801C32.563 47.6512 32.5552 47.6986 32.5395 47.7222C32.5238 47.7459 32.4964 47.7578 32.4533 47.7578H30.7368C30.7368 47.9236 30.7603 48.0657 30.8034 48.1881C30.8426 48.3104 30.9014 48.4091 30.9719 48.492C31.0425 48.5749 31.1287 48.6341 31.2267 48.6736C31.3246 48.7131 31.4344 48.7328 31.5598 48.7328C31.6734 48.7328 31.7714 48.721 31.8537 48.6934C31.936 48.6657 32.0065 48.6381 32.0653 48.6065C32.1241 48.5749 32.175 48.5473 32.2142 48.5197C32.2534 48.492 32.2887 48.4802 32.3161 48.4802C32.3553 48.4802 32.3828 48.496 32.4024 48.5236L32.5317 48.6894C32.4768 48.7565 32.4102 48.8157 32.3318 48.867C32.2534 48.9184 32.1711 48.9578 32.081 48.9934C31.9909 49.0249 31.9007 49.0486 31.8027 49.0684C31.7087 49.0842 31.6146 49.0921 31.5206 49.0921C31.3403 49.0921 31.1757 49.0605 31.0268 49.0013C30.8779 48.942 30.7446 48.8513 30.6349 48.7328C30.5251 48.6144 30.4389 48.4683 30.3801 48.2986C30.3174 48.1249 30.29 47.9275 30.29 47.7025C30.29 47.5209 30.3174 47.3512 30.3723 47.1933C30.4272 47.0354 30.5056 46.8972 30.6114 46.7827C30.7133 46.6682 30.8426 46.5774 30.9915 46.5103C31.1404 46.4432 31.309 46.4117 31.4971 46.4117L31.4892 46.4195ZM31.501 46.759C31.2815 46.759 31.1091 46.8222 30.9837 46.9485C30.8583 47.0748 30.7799 47.2525 30.7485 47.4775H32.1515C32.1515 47.3709 32.1359 47.2722 32.1084 47.1854C32.081 47.0985 32.0379 47.0196 31.9791 46.9564C31.9242 46.8933 31.8537 46.8419 31.7753 46.8064C31.6969 46.7709 31.6029 46.7551 31.4971 46.7551L31.501 46.759Z" fill="black"/>
</g>
<defs>
<clipPath id="clip0_4_4">
<rect width="60" height="50" fill="white"/>
</clipPath>
</defs>
</svg>
