<svg width="82" height="82" viewBox="0 0 82 82" fill="none" xmlns="http://www.w3.org/2000/svg">
<rect width="82" height="82" rx="8" fill="white"/>
<g clip-path="url(#clip0_203_1950)">
<path d="M46.9843 36.109C46.9843 36.109 43.6297 35.884 44.5976 37.5696C45.5656 39.2552 53.3174 39.0183 54.1091 38.896C54.9007 38.7736 54.3991 38.0354 55.2534 38.1143C59.1372 38.4696 61.9863 35.8721 61.9863 35.8721C61.9863 35.8721 59.4272 36.5511 54.0307 36.3932C48.6303 36.2353 48.1208 31.8022 48.1208 31.8022C64.4317 32.3232 66.1365 29.402 66.1365 29.402C64.6865 30.4205 55.081 30.1837 53.9445 29.0902C52.808 27.9927 56.7858 27.3414 56.7858 27.3414C56.7858 27.3414 57.0131 26.4808 49.9667 27.1322C42.9203 27.7835 43.6022 31.0205 43.6022 31.0205C44.1039 33.3891 46.9843 36.1129 46.9843 36.1129V36.109Z" fill="#E81A02"/>
<path d="M46.8863 40.4079C41.1646 39.5552 39.064 38.3196 38.3429 37.2617C37.7786 36.4287 38.2371 34.7668 38.4879 34.0167C38.4957 34.001 38.5075 33.9852 38.5153 33.9694C38.5702 33.8628 38.6016 33.7523 38.6251 33.6417V33.6378C38.6525 33.4917 38.6525 33.3378 38.6329 33.1878C39.209 33.2943 39.8125 33.3851 40.4474 33.4522C40.4474 33.4522 39.111 27.0335 36.3285 24.5307C36.3285 24.5307 40.6865 28.2967 42.3991 32.6351C42.3991 32.6351 44.4448 16.3198 27.5852 16.0079C27.5852 16.0079 25.8883 24.5584 31.3632 29.7336C29.9288 29.7968 27.3971 30.3534 29.7093 33.7641C31.4846 36.3813 33.8556 36.5866 35.7054 35.9905C35.7172 36.7958 35.9484 38.0196 37.0183 39.196C40.0869 42.5711 43.8569 42.658 52.9686 42.2238C56.9699 42.0343 60.3011 41.7106 69.7342 38.9907C69.7342 38.9907 55.8217 41.7422 46.8863 40.4118V40.4079Z" fill="#E81A02"/>
<path d="M15.354 45.3029L15.3775 45.1687L15.401 45.0108L15.644 43.4751L15.7538 42.6619L15.7106 42.5711L15.6009 42.5277L15.0444 42.6383L13.9549 42.8633L13.8883 42.887L12.7753 43.1317L12.1757 43.2225C12.0856 43.2225 12.0189 43.1909 11.9758 43.1317L11.9327 42.9067C11.9327 42.8317 11.9562 42.7725 11.9993 42.7291L12.1326 42.6619C12.207 42.6462 12.258 42.6185 12.2893 42.5711C12.3207 42.5277 12.3325 42.4883 12.3325 42.4606L12.2658 42.3027L12.1757 42.1685L12.0856 42.1251L12.0425 42.0343L11.9993 41.9909C12.015 41.8724 12.0307 41.8053 12.0425 41.7895L12.1522 41.6987H12.1757L12.2658 41.6356L12.3089 41.5093L12.2423 41.4066L12.1326 41.2961H12.1091L11.9993 41.229L11.9562 41.1145C11.9876 41.0079 12.015 40.9369 12.0464 40.9013C12.0777 40.8619 12.1718 40.8303 12.3364 40.7987L12.8694 40.7079L13.8021 40.4829L13.8687 40.4592L14.578 40.2776L15.111 40.1434L15.4677 40.0763L15.8674 39.9855L16.224 39.9184L16.6003 39.8276L17.0235 39.7605L17.4232 39.6697L17.58 39.646L18.0464 39.5552L18.5558 39.4644L19.3122 39.3065L20.2449 39.1012H20.4017L21.7342 38.7973L22.4239 38.6315L22.5336 38.6986L22.5767 38.8091L22.5532 38.8999L22.5101 38.9433L22.5767 39.1012H22.8432L23.0196 39.0104H23.3292L23.486 39.1012L23.5291 39.2433L23.486 39.3262L23.4193 39.3657L23.3958 39.3855L23.3057 39.4447L23.2626 39.5473V39.571L23.3292 39.6381L23.4389 39.7052L23.5291 39.8394C23.5722 39.8829 23.5957 39.9421 23.5957 40.0171L23.5291 40.2855L23.4193 40.4434L23.3762 40.4868L23.2665 40.5974L23.243 40.7079L23.2665 40.775L23.3331 40.8184H23.3566L23.4232 40.9171L23.4664 41.0395C23.4664 41.1382 23.4311 41.2092 23.3566 41.2566L23.0666 41.4027H22.7766L22.1339 41.5369L21.2913 41.6711L21.1345 41.7145L20.9582 41.7382C20.6329 41.7816 20.4252 41.8093 20.3351 41.8172C20.2449 41.8251 20.0843 41.8566 19.8452 41.9159L19.0692 42.0066L18.8694 42.0974L18.7361 42.2751L18.5794 42.9225L18.356 43.9528L18.3129 44.1304L18.2893 44.2883L18.0464 45.6305L17.9366 46.3687L17.9797 46.5266L18.1365 46.57L18.5127 46.4595L19.2221 46.2148L19.3553 46.1477L19.5121 46.1042L19.9353 45.9937L20.3351 45.8832L20.7583 45.7489L21.4246 45.5318L22.1339 45.2752L22.5571 45.1687L22.6904 45.2358L22.7805 45.37V45.4134L22.7139 45.5713L22.6042 45.6384H22.5611L22.4709 45.6858L22.4278 45.7766L22.4513 45.8674L22.518 45.8911V45.9147L22.5846 46.0055L22.5415 46.12L22.4748 46.2108L22.4317 46.2542L22.3651 46.345L22.3416 46.4121L22.3651 46.5266L22.4553 46.574L22.5219 46.5977L22.612 46.6885C22.6551 46.7319 22.6786 46.8148 22.6786 46.9372C22.6786 47.2964 22.6081 47.553 22.467 47.703C22.3259 47.853 22.0555 47.9714 21.6519 48.0622C21.546 48.078 21.4794 48.0938 21.452 48.1096L21.2717 48.153L20.3116 48.4925L18.305 49.1004L18.0816 49.1675C17.9758 49.1833 17.8974 49.1991 17.8465 49.2149C17.7956 49.2307 17.7446 49.2465 17.7015 49.2583C17.6584 49.2741 17.6114 49.2899 17.5683 49.3057C17.5251 49.3215 17.4938 49.3373 17.4781 49.3491L17.388 49.3926L17.3645 49.507L17.3409 49.5978L17.3174 49.6886L17.2508 49.9571V50.2492L17.1764 50.8334L17.0039 51.6229V51.6901L16.804 52.5901L16.7374 53.1072L16.8119 53.2217H17.0078L17.4938 53.1546L18.4461 52.9533C18.6656 52.9217 18.8302 52.902 18.9321 52.8862C19.034 52.8704 19.175 52.8348 19.3514 52.7756L19.8844 52.6848L20.2371 52.6414L20.7466 52.5309L20.8367 52.5072L21.3462 52.3967L21.7459 52.3532L22.0124 52.3098L22.3455 52.219L22.3886 52.1953L22.6982 52.1282L22.9647 52.0848C23.098 52.0848 23.192 52.1085 23.2508 52.1559C23.3096 52.2032 23.3527 52.3019 23.3841 52.4598L23.3174 52.6454L23.1842 52.7835L23.1176 52.8072L23.0078 52.9454L22.9647 53.0599L22.9882 53.1743L23.098 53.198L23.1215 53.2217H23.2116L23.2782 53.3559L23.2116 53.5138L23.1019 53.6283L22.9686 53.7428L22.9255 53.9007L22.9686 53.9915L23.0353 54.0349L23.0784 54.102L23.1215 54.1691L23.0784 54.2836L22.9686 54.3744L22.8589 54.5323L22.8158 54.6665L22.7923 54.7573L22.7257 54.8244L22.5924 54.8678L22.4592 54.8915L22.3925 54.9152L20.9739 55.0968C20.6643 55.1402 20.1901 55.2192 19.5552 55.3337C18.9203 55.4481 18.2188 55.5863 17.4507 55.7521L17.2508 55.7955H16.7178L16.5415 55.8192L16.3651 55.8666L16.0986 55.9376L15.789 55.985L15.4324 56.0561L15.0758 56.1271L14.096 56.2456L13.563 56.2929L13.3396 56.3166L13.0496 56.435L12.9595 56.4587C12.8419 56.4587 12.7518 56.4903 12.693 56.5495H12.4696C12.3638 56.5337 12.2972 56.5179 12.2698 56.5061C12.211 56.4311 12.1796 56.3798 12.1796 56.3482C12.1953 56.2732 12.211 56.2298 12.2227 56.214L12.3325 56.1034L12.3756 56.06L12.4422 55.9929L12.4657 55.9021L12.4422 55.835L12.3756 55.7916L12.2854 55.7245L12.1522 55.6574L12.1091 55.4995C12.1091 55.4087 12.1326 55.3416 12.1757 55.2981L12.3756 55.1876L12.4422 55.1639L12.5519 55.0968L12.6185 54.9863L12.5519 54.8757L12.4618 54.8323L12.3952 54.7652L12.2384 54.631L12.1718 54.4968L12.2149 54.406L12.3481 54.2955L12.6812 54.1375L13.081 53.9599L13.614 53.802L13.9471 53.7112L13.9902 53.6441L14.0568 53.4428L14.1234 53.1507L14.1901 52.7914L14.2567 52.3217L14.2998 51.9624L14.3233 51.5835L14.4135 51.1137L14.4801 50.6676L14.5232 50.2887L14.4997 50.1308L14.433 50.0636L14.0333 50.1544L13.324 50.3123L13.2809 50.336L12.5715 50.5137L12.1483 50.5808L12.015 50.5571L11.9719 50.3992L11.9954 50.3321L12.0385 50.2887L12.0816 50.2452L12.1052 50.1544C12.1052 50.0636 12.0738 50.0123 12.015 49.9965L11.8583 49.9531H11.8347L11.678 49.9294C11.6349 49.8702 11.6114 49.8268 11.6114 49.7952L11.6349 49.7281L11.678 49.6847L11.7446 49.6176L11.8112 49.5939L11.8347 49.436L11.7681 49.3926L11.7015 49.3689L11.6114 49.3926L11.4546 49.4162L11.4115 49.4399C11.337 49.4557 11.2939 49.4715 11.2782 49.4834H11.1685C11.0941 49.4676 11.0509 49.4518 11.0353 49.4399L10.9922 49.3057V49.282L11.0157 49.2149L11.0823 49.1241L11.1058 49.1004L11.1489 49.0333L11.192 48.8991L11.1489 48.8083L11.1058 48.7649H11.0823L11.0157 48.7215L10.9922 48.6307C11.0235 48.5715 11.0509 48.5359 11.0823 48.5201L11.3253 48.4333L11.6819 48.3465L12.1248 48.2359L12.6342 48.1254L13.3005 47.9477L13.3906 47.9241L14.3899 47.703L14.8563 47.5925L14.9229 47.549L14.9895 47.4148L15.0327 47.2372L15.0758 46.9687L15.3423 45.3226L15.354 45.3029Z" fill="black"/>
<path d="M23.5095 50.6953L23.8426 50.0242C23.8857 49.9334 23.9602 49.815 24.066 49.6649C24.1679 49.5149 24.2658 49.3886 24.3521 49.282L24.9713 48.5636L25.8334 47.7346L26.433 47.2648L28.4709 45.899C28.7805 45.6739 29.0078 45.5634 29.1568 45.5634C29.2469 45.595 29.3057 45.6266 29.3331 45.6661C29.3645 45.7016 29.3762 45.7687 29.3762 45.8555L29.3527 45.9226L29.2626 46.0805L29.1293 46.2148L28.9295 46.3727L28.8628 46.4398L28.8863 46.5503L28.953 46.574L29.0862 46.5306L29.1959 46.5069H29.2391L29.3488 46.574L29.3919 46.6845C29.3331 46.7595 29.2861 46.8108 29.2587 46.8424L29.0157 46.9766L28.7492 47.1109C28.7061 47.1424 28.6669 47.1938 28.6394 47.2688L28.7061 47.3596L28.8393 47.3832H28.8824L29.0823 47.4069C29.1411 47.4385 29.1724 47.4661 29.1724 47.4977L29.1489 47.6083V47.6754L29.1058 47.7859V47.8964L29.1293 47.9872L29.1724 48.0307H29.2155L29.2587 48.1214L29.3018 48.3465C29.3018 48.453 29.1176 48.6465 28.7492 48.9268L27.5578 49.7992L27.4677 49.8426L27.4246 49.886C26.9974 50.1544 26.6212 50.4268 26.2998 50.7032C25.9745 50.9795 25.806 51.1927 25.7903 51.3427C25.8178 51.4019 25.8491 51.4414 25.8805 51.4532L26.1234 51.4966L26.3899 51.4729L26.8328 51.4058H26.9229L27.0327 51.3821C27.1933 51.3821 27.3187 51.3664 27.4089 51.3387L27.7381 51.315C28.1339 51.315 28.4317 51.4414 28.6199 51.694C28.8276 51.919 28.9569 52.1796 29.0157 52.4756V52.6533L29.0392 52.8112C29.0392 53.6165 28.7217 54.3626 28.0829 55.0494C27.4442 55.7363 26.7622 56.2969 26.0372 56.7272C25.6218 56.9522 25.1476 57.1693 24.6146 57.3746C24.1561 57.5404 23.7916 57.6193 23.5251 57.6193C23.435 57.6193 23.3605 57.5601 23.3018 57.4417L23.2587 57.039C23.3135 56.964 23.3566 56.9127 23.3919 56.8811L23.6114 56.7469L23.8504 56.6561L23.9484 56.5653V56.4982H23.8347L23.678 56.5219C23.5604 56.5219 23.4664 56.4982 23.3997 56.4548C23.3331 56.4114 23.29 56.3442 23.2782 56.2535L23.3135 55.985L23.388 55.8074V55.2468C23.4154 55.2034 23.4468 55.1718 23.4742 55.156C23.5604 55.081 23.6623 55.0218 23.7799 54.9784L24.6773 54.5757C24.838 54.5007 24.983 54.4336 25.1123 54.3744C25.2417 54.3152 25.3906 54.2323 25.5513 54.1297C25.8138 53.9796 25.951 53.8178 25.9667 53.6362C25.9236 53.5928 25.8765 53.5652 25.8334 53.5573C25.7903 53.5494 25.7237 53.5375 25.6336 53.5257L24.8576 53.502H24.1914C24.0738 53.4704 23.9406 53.4546 23.7916 53.4467C23.6427 53.4388 23.5487 53.3836 23.5016 53.277L23.3919 52.5585V51.3032C23.3919 51.0782 23.4272 50.869 23.5016 50.6755L23.5095 50.6953Z" fill="black"/>
<path d="M37.5787 50.561L37.5121 51.2321C37.4219 51.919 37.2809 52.5506 37.0967 53.123C36.9085 53.6994 36.6812 54.1652 36.4108 54.5205L36.1404 54.8797L35.5996 55.5271L35.3057 55.8389L34.9882 56.1311L34.5807 56.3995L34.2123 56.51H34.1025C34.0006 56.51 33.9144 56.4745 33.8439 56.3995C33.7577 56.3561 33.6832 56.2811 33.6283 56.1745L33.5186 55.8824L33.3893 55.4797L33.3227 55.2784L33.256 55.0534L33.0601 54.2718L32.9739 53.802C32.9739 53.6994 33.0052 53.6165 33.064 53.5572L33.2443 53.4665L33.3344 53.423L33.401 53.3322L33.4677 53.2217L33.5813 53.0638L33.7851 52.973C33.8752 52.973 33.9262 52.9375 33.9419 52.8625L34.0085 52.6177L34.0751 52.3493C34.0908 52.2901 34.1496 52.2506 34.2554 52.2388C34.3455 52.2388 34.4121 52.3296 34.4592 52.5072L34.5728 53.0875V53.1783C34.5728 53.2809 34.5728 53.3717 34.5846 53.4467C34.5924 53.5217 34.6198 53.6441 34.6747 53.8178C34.7257 53.9875 34.8197 54.0902 34.953 54.1218C35.0431 54.0191 35.094 53.9283 35.1097 53.8533L35.1999 53.273V51.2598C35.1685 51.1098 35.1528 50.9834 35.145 50.8808C35.1372 50.7782 35.1215 50.64 35.098 50.4663C35.0745 50.2926 35.0353 50.0715 34.9726 49.7952C34.9138 49.5189 34.8001 49.3649 34.6355 49.3373C34.4984 49.3373 34.3534 49.4162 34.1966 49.5741C34.0398 49.7321 33.8556 49.9807 33.644 50.3242C33.5068 50.5492 33.3618 50.8532 33.2051 51.244C33.0483 51.6308 32.8837 52.0651 32.7191 52.5427C32.4487 53.4388 32.3116 54.4099 32.3116 55.4521V58.8312L32.3782 59.2339V59.8378C32.3782 60.0747 32.3664 60.2721 32.3429 60.4181C32.3194 60.5681 32.2998 60.655 32.2841 60.6747C32.2684 60.6984 32.2528 60.7142 32.2371 60.73H32.0294L31.7746 60.6155L31.5434 60.4774L31.3788 60.3155L31.3083 60.13V59.8299L31.2417 59.4589C31.2417 59.3839 31.1986 59.3286 31.1084 59.297L30.9987 59.3641V59.5655L30.9203 59.7234C30.885 59.7826 30.8498 59.8142 30.8145 59.8142C30.7087 59.7392 30.6381 59.672 30.6029 59.6128V58.7602L30.5362 58.693L30.403 58.7602L30.3129 58.9181V58.9417L30.2188 59.0523L30.1247 59.1194C29.9876 59.1194 29.8857 59.0167 29.823 58.8075L29.7289 58.1601V51.8243L30.0189 49.8781C30.0503 49.6413 30.0777 49.432 30.1052 49.2504C30.1287 49.0728 30.1875 48.7886 30.2854 48.3978L30.5989 47.099L30.8576 46.1595C30.9438 45.9503 31.03 45.8318 31.1163 45.8003H31.3318L31.3984 45.895L31.3749 46.0134L31.3514 46.1319L31.3279 46.2029L31.2848 46.3174V46.4082L31.3044 46.5187L31.3671 46.5621L31.4729 46.5187L31.6218 46.4279L31.708 46.3608C31.7786 46.345 31.8217 46.3292 31.8374 46.3174L31.9432 46.2937C32.0842 46.2937 32.1861 46.3332 32.241 46.4161C32.2998 46.499 32.339 46.6056 32.3703 46.7398V47.099L32.4174 47.2095L32.5075 47.1859L32.5976 47.0951L32.6447 47.0516L32.6917 46.9845L32.7622 46.9609C32.8524 46.9609 32.9229 47.0122 32.9699 47.1188L33.0836 47.4109V47.478L33.017 47.8569L32.9072 48.4609L32.8171 48.9544L32.7505 49.3136L33.111 48.8202L33.6754 47.9912L34.4004 47.1859C34.6394 46.949 34.9059 46.7832 35.192 46.6924L35.3214 46.6687L35.4742 46.645C36.1287 46.645 36.646 46.949 37.0222 47.553C37.3984 48.157 37.5905 48.9307 37.5905 49.8702L37.5669 50.565L37.5787 50.561Z" fill="black"/>
<path d="M41.4272 53.6283C41.2351 53.4033 41.047 53.127 40.8667 52.7993L40.71 53.3401L40.5532 54.1297V54.5363C40.518 54.7021 40.4944 54.8521 40.4748 54.9863C40.4592 55.1205 40.4161 55.2863 40.3455 55.4837L40.2162 56.1824V56.2258L40.1535 56.2929H39.8988L39.6636 56.2258L39.3462 56.0916C39.26 56.0482 39.2168 55.9811 39.2168 55.8903V55.1284L39.1424 55.085L39.0209 55.1521L38.9464 55.31V55.3337L38.8563 55.5113L38.7466 55.5784C38.5389 55.5784 38.3743 55.4955 38.2567 55.3337C38.1509 55.1245 38.0999 54.8718 38.0999 54.5718V52.827C38.0999 52.5743 38.1156 52.294 38.147 51.9861C38.1783 51.6782 38.2175 51.3269 38.2645 50.9203C38.3116 50.5176 38.3664 50.0913 38.4291 49.6452C38.4918 49.1991 38.5702 48.7491 38.6643 48.303C38.8524 47.4069 39.0601 46.5779 39.2952 45.8161L39.3187 45.7726C39.3501 45.6976 39.3854 45.6463 39.4246 45.6147C39.4637 45.5832 39.5225 45.5713 39.6009 45.5713C39.6793 45.6147 39.7342 45.6542 39.7655 45.6819L39.9066 45.8832V46.0648L39.9732 46.1753L39.9066 46.3095V46.5582C39.8831 46.6332 39.8635 46.6766 39.84 46.6924V46.8069L39.9066 46.8977V46.9648L40.0634 46.9411L40.1535 46.7832V46.7595L40.2436 46.6016L40.4004 46.5345L40.4513 46.5582L40.5532 46.6253L40.7413 46.7595L40.8197 46.9174L40.7962 47.0753L40.7727 47.2767L40.7492 47.3004L40.7061 47.4819V47.6398L40.7296 47.6833L40.8393 47.7504C40.8981 47.7227 40.9373 47.6912 40.949 47.6596L41.0392 47.4583L41.0627 47.4148L41.1293 47.2569L41.2195 47.1661L41.3292 47.2096C41.4037 47.2411 41.4468 47.2688 41.4624 47.3004L41.5291 47.4346C41.5291 47.6004 41.486 47.8293 41.3958 48.1293L41.0862 49.0018L40.9295 49.4478L40.7962 49.9176L40.6865 50.4545L40.6434 50.9677L40.9099 50.565L41.1999 50.0281C41.3762 49.7281 41.5761 49.4636 41.7995 49.2347C42.0229 49.0018 42.2502 48.8794 42.4892 48.8636L42.6225 48.8873L42.7988 48.9307C42.9007 48.9623 42.9909 49.0136 43.0653 49.0886C43.1554 49.132 43.1986 49.207 43.1986 49.3136L43.1554 49.5386L43.0888 49.6965L42.9987 49.8308L42.9752 49.8979V49.9215H43.0418L43.0849 49.8781V49.8544L43.1515 49.811L43.175 49.7873L43.1986 49.811L43.175 49.8347L43.1515 49.9018V49.9452L43.175 50.0123L43.3514 49.9018L43.4846 49.8347H43.5278L43.6375 49.9018L43.7041 49.9689L43.7472 50.036C43.7629 50.4229 43.6884 50.79 43.5238 51.1335C43.3906 51.4769 43.2064 51.7966 42.9673 52.0967L43.0771 52.1203H43.4102L43.6101 52.0967L43.8334 52.0532L44.0098 52.0098L44.1861 51.919L44.2959 51.8756C44.2959 52.0414 44.2645 52.1677 44.2057 52.2546L44.0059 52.4322C43.9314 52.448 43.8883 52.4638 43.8726 52.4835H43.7159V52.598L43.7825 52.6177H44.049L43.9824 52.7875L43.8491 52.9099H43.806L43.8726 52.9533H43.9628C44.0647 52.9375 44.1313 52.9217 44.1626 52.9099L44.3194 52.8743C44.3194 53.1072 44.2057 53.3046 43.9824 53.4704L43.2887 53.8296L42.7283 53.9639L42.3481 53.9876C41.917 53.956 41.6035 53.8454 41.4076 53.652L41.4272 53.6283Z" fill="black"/>
<path d="M45.5343 55.8666C45.1777 55.5824 44.8602 55.2468 44.578 54.86L44.3782 54.5915L44.2449 54.3231C44.1861 54.1889 44.1352 53.956 44.0882 53.6283L44.0451 52.5546C44.0451 52.2111 44.0882 51.8164 44.1783 51.3703C44.2214 51.1611 44.2724 50.9676 44.3233 50.79C44.3743 50.6124 44.4762 50.3716 44.6251 50.0755C45.0679 49.0018 45.7067 48.0188 46.5375 47.1306C47.3684 46.2424 48.258 45.7963 49.2025 45.7963C49.3044 45.7963 49.4259 45.8358 49.5591 45.9069C49.6923 45.9819 49.8178 46.0766 49.9353 46.199C50.1705 46.424 50.3978 46.7201 50.6133 47.0951C50.8289 47.4701 50.9347 47.857 50.9347 48.2596C50.9347 49.1991 50.6721 49.8939 50.147 50.34C49.6218 50.7861 48.8262 51.2124 47.7564 51.6151L47.1332 51.8401L46.4435 52.0651C46.4435 52.5112 46.5375 52.8862 46.7217 53.1862C46.9059 53.4862 47.2586 53.6323 47.776 53.6323C47.9406 53.6323 48.1326 53.5928 48.352 53.5138L49.1084 53.1822L49.418 52.9928L49.7511 52.8033L50.3272 52.4638L50.6368 52.1874L50.7152 52.0809L50.8289 52.0374H50.8681L50.9268 52.0809L51.017 52.148L50.9268 52.3059L50.8249 52.4401L50.7857 52.4835L50.7466 52.5269L50.5859 52.7283L50.5271 52.8388L50.5859 52.9059H50.6251L50.6839 52.8822L50.7622 52.7914L50.821 52.7243L50.8798 52.6809L50.919 52.7243L50.9856 52.7914L50.919 52.9493L50.7857 53.1507L50.629 53.352L50.5624 53.5099L50.6212 53.5533L50.7191 53.4428H50.7779L50.8367 53.3757H50.8759L50.9151 53.4428L50.9817 53.5336C50.9503 53.577 50.9308 53.6165 50.9151 53.6441C50.8406 53.7625 50.7544 53.877 50.6603 53.9796C50.5624 54.0823 49.9745 54.5402 48.8929 55.3455L48.6029 55.5232L48.0464 55.8153L47.9131 55.9061C47.8387 55.9219 47.7955 55.9376 47.7799 55.9495L47.2234 56.1942L46.8001 56.285C46.3259 56.285 45.8948 56.1429 45.5108 55.8587L45.5343 55.8666ZM48.5323 49.0136L48.4657 48.7846C48.4226 48.5873 48.3364 48.4294 48.2188 48.307C48.1287 48.1846 48.015 48.1096 47.8818 48.078C47.776 48.1214 47.7093 48.1609 47.678 48.1886L47.4742 48.4333L47.1372 49.1044L46.8432 49.9097L46.5493 50.9637L46.4357 51.6585L46.5689 51.6348L46.7688 51.5677L46.9686 51.5006L47.1019 51.4098L47.1254 51.3427L47.0588 51.2519L46.9255 51.2085H46.8824C46.808 51.1927 46.7649 51.1769 46.7492 51.165L46.7061 51.0979C46.7492 51.0229 46.7884 50.9795 46.8158 50.9637L47.1058 50.8295L47.3488 50.719C47.3919 50.7032 47.4232 50.6834 47.4389 50.6518C47.4546 50.6203 47.4703 50.6005 47.482 50.5847L47.4154 50.5413H46.9922L46.949 50.4268C46.9647 50.3953 46.9882 50.3637 47.0274 50.3242C47.0627 50.2847 47.1215 50.2452 47.1959 50.1979L47.7524 49.9018L48.2854 49.6057C48.4343 49.4991 48.5166 49.3689 48.5284 49.2189V49.0136H48.5323Z" fill="black"/>
<path d="M51.3344 50.6953L51.6675 50.0242C51.7106 49.9334 51.7851 49.815 51.8909 49.6649C51.9928 49.5149 52.0908 49.3886 52.177 49.282L52.7962 48.5636L53.6584 47.7346L54.258 47.2648L56.2959 45.899C56.6055 45.6739 56.8328 45.5634 56.9817 45.5634C57.0718 45.595 57.1306 45.6266 57.158 45.6661C57.1894 45.7016 57.2012 45.7687 57.2012 45.8555L57.1776 45.9226L57.0875 46.0805L56.9543 46.2148L56.7544 46.3727L56.6878 46.4398L56.7113 46.5503L56.7779 46.574L56.9112 46.5306L57.0209 46.5069H57.064L57.1737 46.574L57.2168 46.6845C57.158 46.7595 57.111 46.8108 57.0836 46.8424L56.8406 46.9766L56.5741 47.1109C56.531 47.1424 56.4918 47.1938 56.4644 47.2688L56.531 47.3596L56.6643 47.3832H56.7074L56.9072 47.4069C56.966 47.4385 56.9974 47.4661 56.9974 47.4977L56.9739 47.6083V47.6754L56.9307 47.7859V47.8964L56.9543 47.9872L56.9974 48.0307H57.0405L57.0836 48.1214L57.1267 48.3465C57.1267 48.453 56.9425 48.6465 56.5741 48.9268L55.3827 49.7992L55.2926 49.8426L55.2495 49.886C54.8223 50.1544 54.4461 50.4268 54.1247 50.7032C53.7995 50.9795 53.6309 51.1927 53.6153 51.3427C53.6427 51.4019 53.6741 51.4414 53.7054 51.4532L53.9484 51.4966L54.2149 51.4729L54.6577 51.4058H54.7479L54.8576 51.3821C55.0183 51.3821 55.1437 51.3664 55.2338 51.3387L55.563 51.315C55.9588 51.315 56.2567 51.4414 56.4448 51.694C56.6525 51.919 56.7818 52.1796 56.8406 52.4756V52.6533L56.8641 52.8112C56.8641 53.6165 56.5467 54.3626 55.9079 55.0494C55.2691 55.7363 54.5872 56.2969 53.8622 56.7272C53.4468 56.9522 52.9725 57.1693 52.4396 57.3746C51.981 57.5404 51.6166 57.6193 51.3501 57.6193C51.2599 57.6193 51.1855 57.5601 51.1267 57.4417L51.0836 57.039C51.1385 56.964 51.1816 56.9127 51.2168 56.8811L51.4363 56.7469L51.6754 56.6561L51.7733 56.5653V56.4982H51.6597L51.5029 56.5219C51.3854 56.5219 51.2913 56.4982 51.2247 56.4548C51.158 56.4114 51.1149 56.3442 51.1032 56.2535L51.1385 55.985L51.2129 55.8074V55.2468C51.2403 55.2034 51.2717 55.1718 51.2991 55.156C51.3854 55.081 51.4872 55.0218 51.6048 54.9784L52.5023 54.5757C52.6629 54.5007 52.808 54.4336 52.9373 54.3744C53.0666 54.3152 53.2155 54.2323 53.3762 54.1297C53.6388 53.9796 53.7759 53.8178 53.7916 53.6362C53.7485 53.5928 53.7015 53.5652 53.6584 53.5573C53.6153 53.5494 53.5486 53.5375 53.4585 53.5257L52.6825 53.502H52.0163C51.8987 53.4704 51.7655 53.4546 51.6166 53.4467C51.4677 53.4388 51.3736 53.3836 51.3266 53.277L51.2168 52.5585V51.3032C51.2168 51.0782 51.2521 50.869 51.3266 50.6755L51.3344 50.6953Z" fill="black"/>
<path d="M57.4677 50.6953L57.8008 50.0242C57.8439 49.9334 57.9183 49.815 58.0242 49.6649C58.1261 49.5149 58.224 49.3886 58.3102 49.282L58.9294 48.5636L59.7916 47.7346L60.3912 47.2648L62.4291 45.899C62.7387 45.6739 62.966 45.5634 63.1149 45.5634C63.2051 45.595 63.2639 45.6266 63.2913 45.6661C63.3227 45.7016 63.3344 45.7687 63.3344 45.8555L63.3109 45.9226L63.2208 46.0805L63.0875 46.2148L62.8876 46.3727L62.821 46.4398L62.8445 46.5503L62.9112 46.574L63.0444 46.5306L63.1541 46.5069H63.1972L63.307 46.574L63.3501 46.6845C63.2913 46.7595 63.2443 46.8108 63.2168 46.8424L62.9739 46.9766L62.7074 47.1109C62.6643 47.1424 62.6251 47.1938 62.5976 47.2688L62.6643 47.3596L62.7975 47.3832H62.8406L63.0405 47.4069C63.0993 47.4385 63.1306 47.4661 63.1306 47.4977L63.1071 47.6083V47.6754L63.064 47.7859V47.8964L63.0875 47.9872L63.1306 48.0307H63.1737L63.2168 48.1214L63.26 48.3465C63.26 48.453 63.0758 48.6465 62.7074 48.9268L61.516 49.7992L61.4259 49.8426L61.3827 49.886C60.9556 50.1544 60.5794 50.4268 60.258 50.7032C59.9327 50.9795 59.7642 51.1927 59.7485 51.3427C59.776 51.4019 59.8073 51.4414 59.8387 51.4532L60.0816 51.4966L60.3481 51.4729L60.791 51.4058H60.8811L60.9908 51.3821C61.1515 51.3821 61.2769 51.3664 61.3671 51.3387L61.6963 51.315C62.0921 51.315 62.3899 51.4414 62.578 51.694C62.7858 51.919 62.9151 52.1796 62.9739 52.4756V52.6533L62.9974 52.8112C62.9974 53.6165 62.6799 54.3626 62.0411 55.0494C61.4023 55.7363 60.7204 56.2969 59.9954 56.7272C59.58 56.9522 59.1058 57.1693 58.5728 57.3746C58.1143 57.5404 57.7498 57.6193 57.4833 57.6193C57.3932 57.6193 57.3187 57.5601 57.26 57.4417L57.2168 57.039C57.2717 56.964 57.3148 56.9127 57.3501 56.8811L57.5696 56.7469L57.8086 56.6561L57.9066 56.5653V56.4982H57.7929L57.6362 56.5219C57.5186 56.5219 57.4246 56.4982 57.3579 56.4548C57.2913 56.4114 57.2482 56.3442 57.2364 56.2535L57.2717 55.985L57.3462 55.8074V55.2468C57.3736 55.2034 57.405 55.1718 57.4324 55.156C57.5186 55.081 57.6205 55.0218 57.7381 54.9784L58.6355 54.5757C58.7962 54.5007 58.9412 54.4336 59.0705 54.3744C59.1999 54.3152 59.3488 54.2323 59.5095 54.1297C59.772 53.9796 59.9092 53.8178 59.9249 53.6362C59.8818 53.5928 59.8347 53.5652 59.7916 53.5573C59.7485 53.5494 59.6819 53.5375 59.5918 53.5257L58.8158 53.502H58.1496C58.032 53.4704 57.8988 53.4546 57.7498 53.4467C57.6009 53.4388 57.5069 53.3836 57.4598 53.277L57.3501 52.5585V51.3032C57.3501 51.0782 57.3854 50.869 57.4598 50.6755L57.4677 50.6953Z" fill="black"/>
<path d="M70.9334 50.3716L70.757 51.1295C70.5493 51.844 70.2475 52.5151 69.8478 53.1388C69.6558 53.4823 69.4598 53.7862 69.26 54.0547C69.0601 54.3231 68.8406 54.5757 68.6055 54.8126C68.2959 55.1244 67.9824 55.3929 67.6728 55.6179C67.3749 55.7797 67.1084 55.8784 66.8733 55.91H66.6499L66.45 55.8666L66.2933 55.8232H66.0503V55.8824L66.0934 55.9416L66.2031 56.0008H66.3795L66.4892 56.1113H66.5989L66.2227 56.1784H65.58C65.4154 56.1784 65.2586 56.1469 65.1019 56.0837C64.9451 56.0205 64.7805 55.9337 64.6003 55.8192L64.2906 55.5271L64.0006 55.1876L63.7773 54.8955L63.6205 54.6231C63.5029 54.4139 63.4128 54.1968 63.354 53.9678L63.2639 53.0678C63.2639 51.5795 63.597 50.2808 64.2632 49.1676C64.9294 48.0543 65.8778 47.0872 67.1084 46.2582L67.2652 46.3016L67.4415 46.3687H67.465L67.708 46.4358H67.9314L67.8883 46.3687L67.7982 46.2779L67.7315 46.2345L67.5317 46.124L67.4415 46.0569L67.6179 45.9226L67.8413 45.7884L68.1509 45.6305L68.3938 45.5634C68.7035 45.5634 69.0091 45.6661 69.307 45.8753C69.6048 46.0845 69.8556 46.3213 70.0633 46.5898L70.2632 46.8345L70.42 47.0595L70.5963 47.3951L70.7531 47.7069C70.8432 48.007 70.8981 48.2043 70.9216 48.3109C70.9451 48.4136 70.9569 48.5557 70.9569 48.7373L71 49.6097L70.9334 50.3676V50.3716ZM68.5349 49.4202C68.4918 49.211 68.4017 49.0254 68.2684 48.8596L68.2253 48.8162L68.1822 48.7491L68.0255 48.6149L67.8922 48.457L67.6688 48.3465C67.6257 48.303 67.563 48.2793 67.4925 48.2793C67.1829 48.2793 66.9164 48.457 66.7048 48.8162C66.4892 49.1754 66.2854 49.6057 66.0934 50.115L65.87 51.0111L65.8034 51.6822V52.0848L65.87 52.5309C65.9131 52.8585 66.0072 53.1507 66.1483 53.4033C66.2893 53.6559 66.5362 53.7823 66.8929 53.7823C67.2769 53.7823 67.6022 53.573 67.8609 53.1546C68.1195 52.7362 68.2998 52.2743 68.4056 51.7651L68.5624 50.8453L68.6055 50.1071L68.5389 49.4123L68.5349 49.4202Z" fill="black"/>
<path d="M15.0013 63.2249C15.0013 63.5012 14.9582 63.7538 14.872 63.9828C14.7858 64.2117 14.6643 64.4091 14.5036 64.5789C14.3429 64.7486 14.1548 64.8749 13.9353 64.9657C13.7119 65.0565 13.469 65.1039 13.1986 65.1039C12.9281 65.1039 12.6852 65.0565 12.4657 64.9657C12.2462 64.8749 12.0542 64.7447 11.8974 64.5789C11.7407 64.4131 11.6153 64.2157 11.5291 63.9828C11.4428 63.7538 11.3997 63.5012 11.3997 63.2249C11.3997 62.9485 11.4428 62.6959 11.5291 62.4669C11.6153 62.238 11.7368 62.0366 11.8974 61.8708C12.0581 61.705 12.2462 61.5748 12.4657 61.48C12.6852 61.3892 12.9321 61.3419 13.1986 61.3419C13.4651 61.3419 13.7119 61.3892 13.9353 61.48C14.1587 61.5708 14.3468 61.7011 14.5036 61.8708C14.6603 62.0406 14.7858 62.238 14.872 62.4669C14.9582 62.6959 15.0013 62.9485 15.0013 63.2249ZM14.4918 63.2249C14.4918 62.9998 14.4605 62.7946 14.4017 62.6169C14.339 62.4353 14.2528 62.2853 14.143 62.163C14.0294 62.0406 13.8961 61.9419 13.7355 61.8748C13.5748 61.8077 13.3984 61.7761 13.1986 61.7761C12.9987 61.7761 12.8263 61.8077 12.6656 61.8748C12.5049 61.9419 12.3677 62.0366 12.258 62.163C12.1483 62.2893 12.0581 62.4393 11.9954 62.6169C11.9327 62.7985 11.9053 62.9998 11.9053 63.2249C11.9053 63.4499 11.9366 63.6551 11.9954 63.8328C12.0581 64.0104 12.1443 64.1644 12.258 64.2867C12.3716 64.4091 12.5088 64.5039 12.6656 64.571C12.8223 64.6381 13.0026 64.6697 13.1986 64.6697C13.3945 64.6697 13.5748 64.6381 13.7355 64.571C13.8961 64.5039 14.0294 64.4091 14.143 64.2867C14.2567 64.1644 14.3429 64.0104 14.4017 63.8328C14.4644 63.6551 14.4918 63.4499 14.4918 63.2249Z" fill="black"/>
<path d="M15.5029 65.0644V62.463H15.7616C15.8125 62.463 15.8439 62.4709 15.8635 62.4906C15.8831 62.5103 15.8948 62.5419 15.9027 62.5893L15.934 62.9959C16.0242 62.8143 16.13 62.6722 16.2632 62.5695C16.3925 62.4669 16.5454 62.4156 16.7217 62.4156C16.7923 62.4156 16.8589 62.4235 16.9138 62.4393C16.9686 62.4551 17.0235 62.4787 17.0745 62.5064L17.0157 62.8498C17.0039 62.8932 16.9765 62.913 16.9373 62.913C16.9138 62.913 16.8785 62.9051 16.8276 62.8893C16.7766 62.8735 16.71 62.8656 16.6198 62.8656C16.4631 62.8656 16.3298 62.913 16.224 63.0038C16.1182 63.0946 16.0281 63.2327 15.9575 63.4064V65.0644H15.5029Z" fill="black"/>
<path d="M18.3246 62.4195C18.4383 62.4195 18.5402 62.4314 18.6381 62.4551C18.7361 62.4787 18.8263 62.5182 18.9046 62.5656H19.6061V62.7353C19.6061 62.7906 19.5709 62.8261 19.5003 62.8419L19.2064 62.8814C19.2652 62.9919 19.2926 63.1183 19.2926 63.2525C19.2926 63.3788 19.2691 63.4933 19.2182 63.5999C19.1672 63.7064 19.1045 63.7933 19.0183 63.8643C18.9321 63.9394 18.8302 63.9946 18.7126 64.0341C18.595 64.0736 18.4657 64.0933 18.3246 64.0933C18.2031 64.0933 18.0895 64.0775 17.9837 64.0499C17.9288 64.0854 17.8896 64.1249 17.8583 64.1644C17.8308 64.2038 17.8151 64.2433 17.8151 64.2828C17.8151 64.346 17.8387 64.3933 17.8896 64.4289C17.9406 64.4604 18.0033 64.4841 18.0856 64.4999C18.1679 64.5157 18.258 64.5196 18.3638 64.5196H18.6812C18.791 64.5196 18.8968 64.5275 18.9987 64.5473C19.1006 64.567 19.1946 64.5986 19.2769 64.642C19.3592 64.6854 19.4259 64.7447 19.4729 64.8236C19.5238 64.8986 19.5473 64.9973 19.5473 65.1197C19.5473 65.2342 19.5199 65.3407 19.4651 65.4473C19.4102 65.5539 19.3318 65.6487 19.226 65.7276C19.1241 65.8105 18.9948 65.8776 18.8458 65.925C18.6969 65.9724 18.5284 66 18.3403 66C18.1522 66 17.9876 65.9802 17.8426 65.9447C17.6976 65.9092 17.5839 65.8579 17.4899 65.7947C17.3958 65.7316 17.3253 65.6565 17.2782 65.5736C17.2312 65.4908 17.2077 65.4039 17.2077 65.3131C17.2077 65.1828 17.2469 65.0763 17.3292 64.9855C17.4115 64.8947 17.5212 64.8236 17.6623 64.7723C17.5878 64.7368 17.533 64.6933 17.486 64.6341C17.4428 64.5789 17.4193 64.4999 17.4193 64.4052C17.4193 64.3696 17.4272 64.3302 17.4389 64.2867C17.4507 64.2473 17.4742 64.2078 17.5016 64.1683C17.5291 64.1288 17.5643 64.0933 17.6035 64.0538C17.6427 64.0183 17.6937 63.9867 17.7446 63.9591C17.6153 63.888 17.5173 63.7933 17.4468 63.6749C17.3762 63.5564 17.337 63.4183 17.337 63.2564C17.337 63.1301 17.3605 63.0156 17.4115 62.909C17.4624 62.8025 17.5291 62.7156 17.6153 62.6445C17.7015 62.5735 17.8034 62.5143 17.9249 62.4748C18.0464 62.4353 18.1757 62.4156 18.3207 62.4156L18.3246 62.4195ZM19.1319 65.1947C19.1319 65.1276 19.1123 65.0763 19.0771 65.0368C19.0418 64.9973 18.9948 64.9657 18.9321 64.942C18.8694 64.9184 18.7988 64.9026 18.7204 64.8947C18.6421 64.8828 18.5558 64.8789 18.4696 64.8789H18.1992C18.1091 64.8789 18.0189 64.867 17.9366 64.8433C17.8387 64.8907 17.7603 64.946 17.7015 65.0131C17.6427 65.0802 17.6114 65.1592 17.6114 65.2539C17.6114 65.3131 17.627 65.3684 17.6545 65.4157C17.6858 65.4671 17.7289 65.5105 17.7916 65.546C17.8543 65.5815 17.9288 65.6131 18.0229 65.6329C18.1169 65.6526 18.2227 65.6644 18.3521 65.6644C18.4814 65.6644 18.5833 65.6526 18.6812 65.6289C18.7792 65.6052 18.8615 65.5736 18.9281 65.5302C18.9948 65.4868 19.0457 65.4394 19.081 65.3802C19.1163 65.321 19.1359 65.2578 19.1359 65.1868L19.1319 65.1947ZM18.3246 63.7933C18.4148 63.7933 18.4971 63.7814 18.5676 63.7538C18.6381 63.7301 18.6969 63.6907 18.744 63.6472C18.791 63.6038 18.8263 63.5446 18.8498 63.4814C18.8733 63.4183 18.885 63.3472 18.885 63.2683C18.885 63.1104 18.838 62.984 18.74 62.8893C18.646 62.7946 18.5049 62.7472 18.3207 62.7472C18.1365 62.7472 17.9993 62.7946 17.9053 62.8893C17.8073 62.984 17.7603 63.1104 17.7603 63.2683C17.7603 63.3472 17.772 63.4143 17.7956 63.4814C17.8191 63.5446 17.8543 63.5999 17.9053 63.6472C17.9562 63.6946 18.0111 63.7301 18.0816 63.7538C18.1522 63.7814 18.2306 63.7933 18.3207 63.7933H18.3246Z" fill="black"/>
<path d="M21.8557 65.0644H21.6558C21.6127 65.0644 21.5774 65.0565 21.55 65.0447C21.5225 65.0289 21.5069 65.0013 21.4951 64.9578L21.4442 64.717C21.3775 64.7802 21.3109 64.8355 21.2443 64.8828C21.1777 64.9302 21.111 64.9736 21.0405 65.0052C20.97 65.0368 20.8916 65.0644 20.8132 65.0802C20.7348 65.096 20.6447 65.1078 20.5428 65.1078C20.4409 65.1078 20.3468 65.0921 20.2606 65.0644C20.1744 65.0368 20.096 64.9934 20.0333 64.9381C19.9667 64.8828 19.9157 64.8078 19.8805 64.7249C19.8413 64.6381 19.8217 64.5354 19.8217 64.417C19.8217 64.3144 19.8491 64.2157 19.904 64.121C19.9589 64.0262 20.049 63.9394 20.1744 63.8683C20.2998 63.7933 20.4644 63.7341 20.6643 63.6867C20.8681 63.6393 21.115 63.6157 21.405 63.6157V63.4104C21.405 63.2091 21.3619 63.0551 21.2756 62.9485C21.1894 62.8459 21.064 62.7906 20.8955 62.7906C20.7858 62.7906 20.6917 62.8064 20.6172 62.834C20.5428 62.8617 20.4762 62.8933 20.4213 62.9288C20.3664 62.9643 20.3194 62.9959 20.2802 63.0235C20.241 63.0512 20.2018 63.0669 20.1626 63.0669C20.1313 63.0669 20.1039 63.0591 20.0803 63.0433C20.0568 63.0275 20.0412 63.0077 20.0255 62.984L19.9432 62.838C20.0843 62.6998 20.241 62.5972 20.4056 62.5261C20.5702 62.459 20.7544 62.4235 20.9543 62.4235C21.0993 62.4235 21.2286 62.4472 21.3383 62.4945C21.4481 62.5419 21.546 62.609 21.6205 62.6959C21.695 62.7827 21.7538 62.8854 21.7929 63.0077C21.8321 63.1301 21.8517 63.2643 21.8517 63.4064V65.0723L21.8557 65.0644ZM20.6799 64.7841C20.7583 64.7841 20.8328 64.7762 20.8994 64.7605C20.966 64.7447 21.0287 64.721 21.0875 64.6894C21.1463 64.6578 21.2012 64.6223 21.256 64.5789C21.3109 64.5354 21.3619 64.4881 21.4128 64.4328V63.8959C21.2051 63.8959 21.0248 63.9078 20.8798 63.9354C20.7348 63.963 20.6133 63.9986 20.5232 64.042C20.4331 64.0854 20.3664 64.1367 20.3233 64.196C20.2802 64.2552 20.2606 64.3183 20.2606 64.3933C20.2606 64.4683 20.2724 64.5236 20.292 64.571C20.3155 64.6223 20.3429 64.6618 20.3821 64.6933C20.4213 64.7249 20.4644 64.7486 20.5154 64.7644C20.5663 64.7802 20.6212 64.7881 20.6799 64.7881V64.7841Z" fill="black"/>
<path d="M22.4435 65.0644V62.463H22.7139C22.7766 62.463 22.8197 62.4946 22.8354 62.5577L22.8707 62.8419C22.9843 62.7156 23.1097 62.6169 23.2469 62.538C23.3841 62.459 23.5447 62.4235 23.7289 62.4235C23.87 62.4235 23.9954 62.4472 24.1012 62.4945C24.207 62.5419 24.3011 62.609 24.3716 62.6959C24.4422 62.7827 24.4971 62.8854 24.5362 63.0077C24.5754 63.1301 24.5911 63.2643 24.5911 63.4104V65.0684H24.1365V63.4104C24.1365 63.213 24.0934 63.0591 24.0033 62.9525C23.9131 62.8459 23.776 62.7906 23.5957 62.7906C23.4624 62.7906 23.337 62.8222 23.2195 62.8893C23.1019 62.9564 22.9961 63.0433 22.8981 63.1538V65.0684H22.4435V65.0644Z" fill="black"/>
<path d="M25.7825 61.6458C25.7825 61.6892 25.7746 61.7327 25.7551 61.7721C25.7355 61.8116 25.7119 61.8432 25.6845 61.8748C25.6532 61.9063 25.6218 61.9261 25.5826 61.9458C25.5434 61.9616 25.5003 61.9695 25.4572 61.9695C25.4141 61.9695 25.371 61.9616 25.3318 61.9458C25.2926 61.93 25.2613 61.9063 25.2299 61.8748C25.1986 61.8432 25.175 61.8116 25.1594 61.7721C25.1437 61.7327 25.1358 61.6932 25.1358 61.6458C25.1358 61.5984 25.1437 61.559 25.1594 61.5195C25.175 61.48 25.1986 61.4445 25.2299 61.4129C25.2613 61.3813 25.2926 61.3576 25.3318 61.3418C25.371 61.3261 25.4102 61.3142 25.4572 61.3142C25.5042 61.3142 25.5434 61.3221 25.5826 61.3418C25.6218 61.3576 25.6571 61.3813 25.6845 61.4129C25.7159 61.4445 25.7394 61.48 25.7551 61.5195C25.7746 61.559 25.7825 61.6024 25.7825 61.6458ZM25.6806 62.463V65.0644H25.226V62.463H25.6806Z" fill="black"/>
<path d="M28.1417 62.9248C28.1417 62.9248 28.1143 62.9564 28.1025 62.9682C28.0908 62.9801 28.0712 62.984 28.0438 62.984C28.0163 62.984 27.9889 62.9722 27.9615 62.9525C27.9301 62.9327 27.8948 62.909 27.8478 62.8814C27.8008 62.8577 27.7459 62.834 27.6793 62.8103C27.6127 62.7906 27.5343 62.7788 27.4402 62.7788C27.3148 62.7788 27.2051 62.8024 27.1071 62.8459C27.0091 62.8932 26.9308 62.9564 26.8641 63.0432C26.7975 63.1301 26.7505 63.2327 26.7152 63.3551C26.6839 63.4775 26.6643 63.6117 26.6643 63.7617C26.6643 63.9117 26.6839 64.0578 26.7191 64.1801C26.7544 64.3025 26.8054 64.4052 26.8681 64.4881C26.9347 64.571 27.0131 64.6341 27.1032 64.6775C27.1973 64.721 27.2992 64.7447 27.4167 64.7447C27.5343 64.7447 27.6166 64.7328 27.6911 64.7052C27.7655 64.6775 27.8204 64.6499 27.8713 64.6183C27.9223 64.5867 27.9575 64.5552 27.9889 64.5315C28.0202 64.5078 28.0516 64.492 28.079 64.492C28.1182 64.492 28.1457 64.5078 28.1653 64.5354L28.2946 64.7012C28.1809 64.8394 28.0438 64.942 27.8752 65.0052C27.7067 65.0683 27.5304 65.0999 27.3423 65.0999C27.1816 65.0999 27.0327 65.0684 26.8916 65.0091C26.7544 64.9499 26.6329 64.8631 26.531 64.7486C26.4291 64.6341 26.3468 64.496 26.292 64.3302C26.2332 64.1644 26.2057 63.9749 26.2057 63.7617C26.2057 63.5683 26.2332 63.3906 26.288 63.2248C26.3429 63.059 26.4213 62.9169 26.5232 62.7985C26.6251 62.6801 26.7544 62.5853 26.9033 62.5182C27.0562 62.4511 27.2286 62.4195 27.4246 62.4195C27.6048 62.4195 27.7655 62.4472 27.9027 62.5064C28.0438 62.5656 28.1653 62.6485 28.2711 62.7551L28.1496 62.9209L28.1417 62.9248Z" fill="black"/>
<path d="M32.1861 64.3025C32.2136 64.3025 32.2371 64.3144 32.2606 64.3341L32.4526 64.5473C32.3037 64.721 32.1234 64.8591 31.9079 64.9539C31.6963 65.0526 31.4376 65.0999 31.1358 65.0999C30.8733 65.0999 30.6342 65.0526 30.4187 64.9618C30.2031 64.871 30.0229 64.7407 29.87 64.5749C29.7172 64.4091 29.5996 64.2117 29.5173 63.9788C29.435 63.7459 29.3919 63.4933 29.3919 63.2169C29.3919 62.9406 29.435 62.684 29.5251 62.4551C29.6153 62.2261 29.7407 62.0248 29.9014 61.859C30.062 61.6932 30.258 61.5629 30.4814 61.4721C30.7048 61.3813 30.9556 61.334 31.226 61.334C31.4964 61.334 31.7276 61.3774 31.9197 61.4603C32.1156 61.5432 32.288 61.6577 32.437 61.8037L32.2763 62.0327C32.2763 62.0327 32.2528 62.0643 32.2371 62.0761C32.2214 62.0879 32.1979 62.0919 32.1705 62.0919C32.147 62.0919 32.1234 62.084 32.0999 62.0682C32.0764 62.0524 32.0451 62.0327 32.0137 62.009C31.9784 61.9853 31.9392 61.9577 31.8922 61.93C31.8452 61.9024 31.7903 61.8787 31.7276 61.8511C31.6649 61.8274 31.5905 61.8077 31.5082 61.7919C31.4259 61.7761 31.3279 61.7682 31.2181 61.7682C31.0222 61.7682 30.8419 61.8037 30.6812 61.8708C30.5206 61.9379 30.3795 62.0366 30.2619 62.159C30.1443 62.2853 30.0542 62.4353 29.9876 62.6169C29.921 62.7985 29.8896 62.9959 29.8896 63.2209C29.8896 63.4459 29.921 63.6551 29.9876 63.8328C30.0542 64.0144 30.1404 64.1644 30.2541 64.2907C30.3677 64.417 30.501 64.5078 30.6538 64.5749C30.8067 64.642 30.9752 64.6736 31.1515 64.6736C31.2613 64.6736 31.3592 64.6657 31.4455 64.6539C31.5317 64.642 31.614 64.6223 31.6884 64.5947C31.7629 64.567 31.8295 64.5315 31.8961 64.492C31.9628 64.4525 32.0255 64.4012 32.0882 64.342C32.1156 64.3144 32.147 64.3025 32.1705 64.3025H32.1861Z" fill="black"/>
<path d="M33.9771 62.4195C34.1652 62.4195 34.3377 62.4511 34.4866 62.5143C34.6394 62.5774 34.7688 62.6682 34.8746 62.7827C34.9804 62.8972 35.0627 63.0393 35.1176 63.2051C35.1764 63.3709 35.2038 63.5564 35.2038 63.7578C35.2038 63.9591 35.1764 64.1486 35.1176 64.3144C35.0588 64.4802 34.9804 64.6183 34.8746 64.7368C34.7688 64.8552 34.6394 64.942 34.4866 65.0052C34.3338 65.0683 34.1652 65.0999 33.9771 65.0999C33.789 65.0999 33.6166 65.0683 33.4677 65.0052C33.3148 64.942 33.1855 64.8552 33.0797 64.7368C32.9739 64.6223 32.8916 64.4802 32.8328 64.3144C32.774 64.1486 32.7466 63.967 32.7466 63.7578C32.7466 63.5485 32.774 63.3709 32.8328 63.2051C32.8916 63.0393 32.9739 62.8972 33.0797 62.7827C33.1855 62.6682 33.3148 62.5774 33.4677 62.5143C33.6205 62.4511 33.789 62.4195 33.9771 62.4195ZM33.9771 64.7447C34.2319 64.7447 34.4239 64.6578 34.5493 64.4881C34.6747 64.3144 34.7374 64.0775 34.7374 63.7657C34.7374 63.4538 34.6747 63.213 34.5493 63.0432C34.4239 62.8695 34.2319 62.7827 33.9771 62.7827C33.8478 62.7827 33.7342 62.8064 33.6401 62.8498C33.546 62.8932 33.4637 62.9603 33.401 63.0432C33.3383 63.1261 33.2913 63.2288 33.26 63.3512C33.2286 63.4735 33.2129 63.6117 33.2129 63.7657C33.2129 63.9196 33.2286 64.0578 33.26 64.1801C33.2913 64.3025 33.3383 64.4052 33.401 64.4881C33.4637 64.571 33.546 64.6341 33.6401 64.6775C33.7342 64.721 33.8478 64.7447 33.9771 64.7447Z" fill="black"/>
<path d="M35.7681 65.0644V62.8538L35.482 62.8222C35.4468 62.8143 35.4154 62.8025 35.3958 62.7827C35.3723 62.7669 35.3605 62.7393 35.3605 62.7038V62.5182H35.7681V62.2656C35.7681 62.1156 35.7877 61.9853 35.8308 61.8708C35.8739 61.7563 35.9327 61.6577 36.0111 61.5787C36.0895 61.4998 36.1835 61.4405 36.2894 61.3971C36.3991 61.3576 36.5206 61.334 36.6577 61.334C36.7714 61.334 36.8811 61.3497 36.9791 61.3853L36.9673 61.6142C36.9673 61.6498 36.9517 61.6695 36.9242 61.6774C36.8968 61.6853 36.8576 61.6892 36.8106 61.6892H36.7322C36.6538 61.6892 36.5833 61.7011 36.5206 61.7208C36.4579 61.7406 36.403 61.7761 36.356 61.8195C36.3089 61.8669 36.2737 61.9261 36.2502 62.0011C36.2267 62.0761 36.2149 62.1708 36.2149 62.2814V62.5222H36.9634V62.8538H36.2306V65.0723H35.776L35.7681 65.0644Z" fill="black"/>
<path d="M37.3828 65.0644V62.8538L37.0967 62.8222C37.0614 62.8143 37.03 62.8025 37.0104 62.7827C36.9869 62.7669 36.9752 62.7393 36.9752 62.7038V62.5182H37.3828V62.2656C37.3828 62.1156 37.4023 61.9853 37.4455 61.8708C37.4886 61.7563 37.5474 61.6577 37.6257 61.5787C37.7041 61.4998 37.7982 61.4405 37.904 61.3971C38.0137 61.3576 38.1352 61.334 38.2724 61.334C38.386 61.334 38.4958 61.3497 38.5937 61.3853L38.582 61.6142C38.582 61.6498 38.5663 61.6695 38.5389 61.6774C38.5114 61.6853 38.4722 61.6892 38.4252 61.6892H38.3468C38.2684 61.6892 38.1979 61.7011 38.1352 61.7208C38.0725 61.7406 38.0176 61.7761 37.9706 61.8195C37.9236 61.8669 37.8883 61.9261 37.8648 62.0011C37.8413 62.0761 37.8295 62.1708 37.8295 62.2814V62.5222H38.578V62.8538H37.8452V65.0723H37.3906L37.3828 65.0644Z" fill="black"/>
<path d="M39.9183 62.4195C40.0712 62.4195 40.2162 62.4472 40.3455 62.4985C40.4748 62.5498 40.5885 62.6248 40.6865 62.7235C40.7805 62.8222 40.855 62.9446 40.9099 63.0867C40.9647 63.2327 40.9922 63.3946 40.9922 63.5801C40.9922 63.6512 40.9843 63.6986 40.9686 63.7222C40.953 63.7459 40.9255 63.7578 40.8824 63.7578H39.1659C39.1659 63.9236 39.1894 64.0657 39.2325 64.1881C39.2717 64.3104 39.3305 64.4091 39.401 64.492C39.4716 64.5749 39.5578 64.6341 39.6558 64.6736C39.7537 64.7131 39.8635 64.7328 39.9889 64.7328C40.1025 64.7328 40.2005 64.721 40.2828 64.6934C40.3651 64.6657 40.4357 64.6381 40.4944 64.6065C40.5532 64.5749 40.6042 64.5473 40.6434 64.5197C40.6826 64.492 40.7178 64.4802 40.7453 64.4802C40.7844 64.4802 40.8119 64.496 40.8315 64.5236L40.9608 64.6894C40.9059 64.7565 40.8393 64.8157 40.7609 64.867C40.6826 64.9184 40.6003 64.9578 40.5101 64.9934C40.42 65.0249 40.3298 65.0486 40.2319 65.0684C40.1378 65.0842 40.0438 65.0921 39.9497 65.0921C39.7694 65.0921 39.6048 65.0605 39.4559 65.0013C39.307 64.942 39.1737 64.8513 39.064 64.7328C38.9543 64.6144 38.8681 64.4683 38.8093 64.2986C38.7466 64.1249 38.7191 63.9275 38.7191 63.7025C38.7191 63.5209 38.7466 63.3512 38.8014 63.1933C38.8563 63.0354 38.9347 62.8972 39.0405 62.7827C39.1424 62.6682 39.2717 62.5774 39.4206 62.5103C39.5696 62.4432 39.7381 62.4117 39.9262 62.4117L39.9183 62.4195ZM39.9301 62.759C39.7106 62.759 39.5382 62.8222 39.4128 62.9485C39.2874 63.0748 39.209 63.2525 39.1777 63.4775H40.5807C40.5807 63.3709 40.565 63.2722 40.5376 63.1854C40.5101 63.0985 40.467 63.0196 40.4082 62.9564C40.3534 62.8933 40.2828 62.8419 40.2044 62.8064C40.1261 62.7709 40.032 62.7551 39.9262 62.7551L39.9301 62.759Z" fill="black"/>
<path d="M42.4892 62.4195C42.6421 62.4195 42.7871 62.4472 42.9164 62.4985C43.0457 62.5498 43.1594 62.6248 43.2573 62.7235C43.3514 62.8222 43.4259 62.9446 43.4807 63.0867C43.5356 63.2327 43.563 63.3946 43.563 63.5801C43.563 63.6512 43.5552 63.6986 43.5395 63.7222C43.5238 63.7459 43.4964 63.7578 43.4533 63.7578H41.7368C41.7368 63.9236 41.7603 64.0657 41.8034 64.1881C41.8426 64.3104 41.9014 64.4091 41.9719 64.492C42.0425 64.5749 42.1287 64.6341 42.2267 64.6736C42.3246 64.7131 42.4344 64.7328 42.5598 64.7328C42.6734 64.7328 42.7714 64.721 42.8537 64.6934C42.936 64.6657 43.0065 64.6381 43.0653 64.6065C43.1241 64.5749 43.175 64.5473 43.2142 64.5197C43.2534 64.492 43.2887 64.4802 43.3161 64.4802C43.3553 64.4802 43.3828 64.496 43.4024 64.5236L43.5317 64.6894C43.4768 64.7565 43.4102 64.8157 43.3318 64.867C43.2534 64.9184 43.1711 64.9578 43.081 64.9934C42.9909 65.0249 42.9007 65.0486 42.8027 65.0684C42.7087 65.0842 42.6146 65.0921 42.5206 65.0921C42.3403 65.0921 42.1757 65.0605 42.0268 65.0013C41.8779 64.942 41.7446 64.8513 41.6349 64.7328C41.5251 64.6144 41.4389 64.4683 41.3801 64.2986C41.3174 64.1249 41.29 63.9275 41.29 63.7025C41.29 63.5209 41.3174 63.3512 41.3723 63.1933C41.4272 63.0354 41.5056 62.8972 41.6114 62.7827C41.7133 62.6682 41.8426 62.5774 41.9915 62.5103C42.1404 62.4432 42.309 62.4117 42.4971 62.4117L42.4892 62.4195ZM42.501 62.759C42.2815 62.759 42.1091 62.8222 41.9837 62.9485C41.8583 63.0748 41.7799 63.2525 41.7485 63.4775H43.1515C43.1515 63.3709 43.1359 63.2722 43.1084 63.1854C43.081 63.0985 43.0379 63.0196 42.9791 62.9564C42.9242 62.8933 42.8537 62.8419 42.7753 62.8064C42.6969 62.7709 42.6029 62.7551 42.4971 62.7551L42.501 62.759Z" fill="black"/>
</g>
<defs>
<clipPath id="clip0_203_1950">
<rect width="60" height="50" fill="white" transform="translate(11 16)"/>
</clipPath>
</defs>
</svg>
